<svg t="1678870829443" class="icon" viewBox="0 0 1024 1024" version="1.1" xmlns="http://www.w3.org/2000/svg" p-id="37299" width="200" height="200"><path d="M891.5968 915.92704l-567.54176 57.77408-191.65184-173.3632 567.54176-57.77408z" fill="#F0F7F4" p-id="37300"></path><path d="M2.19136 623.45216l0.04096-48.98816c0 1.35168 0.7168 2.72384 2.19136 4.07552L4.38272 627.5072c-1.49504-1.3312-2.19136-2.70336-2.19136-4.05504" fill="#CBF7E6" p-id="37301"></path><path d="M993.42336 778.09664l0.04096-48.98816c2.6624-0.26624 5.16096-0.6144 7.49568-1.024l-0.04096 48.98816c-2.31424 0.4096-4.83328 0.75776-7.49568 1.024M1000.93952 777.07264l0.04096-48.98816c1.86368-0.32768 3.64544-0.69632 5.28384-1.10592l-0.04096 48.98816c-1.65888 0.4096-3.42016 0.77824-5.28384 1.10592M1006.22336 775.9872l0.04096-48.98816c1.20832-0.28672 2.3552-0.6144 3.44064-0.94208l-0.04096 48.98816a81.22368 81.22368 0 0 1-3.44064 0.94208" fill="#EBF7F1" p-id="37302"></path><path d="M1009.664 775.04512l0.04096-48.98816c0.86016-0.26624 1.69984-0.53248 2.47808-0.8192l-0.04096 48.98816-2.47808 0.8192" fill="#EBF7F1" p-id="37303"></path><path d="M1012.14208 774.20544l0.04096-48.98816c0.67584-0.24576 1.31072-0.49152 1.92512-0.75776l-0.04096 48.98816c-0.6144 0.26624-1.26976 0.512-1.92512 0.75776" fill="#EBF7F1" p-id="37304"></path><path d="M1014.04672 773.44768l0.04096-48.98816c0.55296-0.22528 1.06496-0.47104 1.55648-0.7168l-0.04096 48.98816a22.09792 22.09792 0 0 1-1.55648 0.7168" fill="#EBF7F1" p-id="37305"></path><path d="M1015.6032 772.73088l0.04096-48.98816 1.31072-0.69632-0.04096 48.98816c-0.4096 0.22528-0.83968 0.47104-1.31072 0.69632" fill="#EBF7F1" p-id="37306"></path><path d="M1016.91392 772.03456l0.04096-48.98816a14.5408 14.5408 0 0 0 1.10592-0.69632l-0.04096 48.98816a14.5408 14.5408 0 0 1-1.10592 0.69632" fill="#EBF7F1" p-id="37307"></path><path d="M1018.01984 771.33824l0.04096-48.98816a11.22304 11.22304 0 0 0 0.94208-0.69632l-0.04096 48.98816a8.64256 8.64256 0 0 1-0.94208 0.69632M1018.9824 770.6624l0.04096-48.98816a8.84736 8.84736 0 0 0 0.79872-0.69632l-0.04096 48.98816-0.79872 0.69632" fill="#EBF7F1" p-id="37308"></path><path d="M1019.78112 769.96608l0.04096-48.98816a6.81984 6.81984 0 0 0 0.65536-0.69632l-0.04096 48.98816a20.43904 20.43904 0 0 1-0.65536 0.69632M1020.43648 769.26976l0.04096-48.98816a5.38624 5.38624 0 0 0 0.53248-0.7168l-0.04096 48.98816a8.0896 8.0896 0 0 1-0.53248 0.7168" fill="#EBF7F1" p-id="37309"></path><path d="M1020.96896 768.55296l0.04096-48.98816c0.16384-0.24576 0.28672-0.49152 0.4096-0.73728l-0.04096 48.98816a4.42368 4.42368 0 0 1-0.4096 0.73728" fill="#EBF7F1" p-id="37310"></path><path d="M1021.37856 767.81568l0.04096-48.98816a3.4816 3.4816 0 0 0 0.26624-0.77824l-0.04096 48.98816a3.4816 3.4816 0 0 1-0.26624 0.77824" fill="#EBF7F1" p-id="37311"></path><path d="M1021.6448 767.03744l0.04096-48.98816a5.65248 5.65248 0 0 0 0.12288-0.8192l-0.04096 48.98816a5.65248 5.65248 0 0 1-0.12288 0.8192" fill="#EBF7F1" p-id="37312"></path><path d="M1021.76768 766.21824l0.04096-48.98816v-0.12288l-0.04096 48.98816v0.12288" fill="#EBF7F1" p-id="37313"></path><path d="M4.38272 627.5072l0.06144-48.96768 236.3392 213.79072-0.04096 48.98816z" fill="#CBF7E6" p-id="37314"></path><path d="M293.51936 849.36704l0.04096-48.98816 699.92448-71.2704-0.06144 48.98816z" fill="#EBF7F1" p-id="37315"></path><path d="M240.7424 841.3184l0.04096-48.98816c1.86368 1.67936 4.73088 3.15392 8.37632 4.4032l-0.04096 48.98816a24.2688 24.2688 0 0 1-8.37632-4.4032" fill="#EBF7F1" p-id="37316"></path><path d="M249.11872 845.7216l0.04096-48.98816c0.94208 0.32768 1.9456 0.63488 2.9696 0.9216l-0.04096 48.98816a46.3872 46.3872 0 0 1-2.9696-0.9216M252.08832 846.6432l0.04096-48.98816c0.83968 0.24576 1.72032 0.47104 2.62144 0.67584l-0.04096 48.98816a44.42112 44.42112 0 0 1-2.62144-0.67584" fill="#EBF7F1" p-id="37317"></path><path d="M254.70976 847.31904l0.04096-48.98816 2.43712 0.53248-0.04096 49.00864c-0.83968-0.18432-1.6384-0.34816-2.43712-0.55296M257.14688 847.872l0.04096-48.98816 2.33472 0.45056-0.04096 48.98816-2.33472-0.45056" fill="#EBF7F1" p-id="37318"></path><path d="M259.4816 848.30208l0.04096-48.98816c0.75776 0.12288 1.51552 0.26624 2.29376 0.36864l-0.04096 48.98816a41.18528 41.18528 0 0 1-2.29376-0.36864M261.77536 848.6912l0.04096-48.98816c0.73728 0.1024 1.47456 0.22528 2.23232 0.3072l-0.04096 48.98816-2.23232-0.3072" fill="#EBF7F1" p-id="37319"></path><path d="M264.00768 848.9984l0.04096-48.98816 2.23232 0.26624L266.24 849.26464l-2.23232-0.26624M266.26048 849.26464l0.04096-48.98816 2.2528 0.22528-0.04096 48.98816-2.2528-0.22528" fill="#EBF7F1" p-id="37320"></path><path d="M268.4928 849.48992l0.04096-48.98816 2.2528 0.18432-0.04096 48.98816a1019.6992 1019.6992 0 0 0-2.2528-0.18432M270.76608 849.67424l0.04096-48.98816 2.2528 0.14336-0.04096 48.98816a78.1312 78.1312 0 0 1-2.2528-0.14336M273.01888 849.8176l0.04096-48.98816 2.2528 0.1024-0.04096 48.98816-2.2528-0.1024M275.27168 849.92l0.04096-48.98816 2.2528 0.06144-0.04096 48.98816c-0.75776 0-1.49504-0.04096-2.2528-0.06144" fill="#EBF7F1" p-id="37321"></path><path d="M277.52448 849.98144l0.04096-48.98816 2.23232 0.02048-0.04096 48.98816-2.23232-0.02048M279.7568 850.0224l0.04096-48.98816h2.29376l-0.04096 48.98816h-2.29376" fill="#EBF7F1" p-id="37322"></path><path d="M282.05056 850.00192l0.04096-48.98816 2.39616-0.06144-0.04096 48.98816a46.77632 46.77632 0 0 1-2.39616 0.06144M284.44672 849.96096l0.04096-48.98816 2.6624-0.1024-0.04096 48.98816-2.6624 0.1024" fill="#EBF7F1" p-id="37323"></path><path d="M287.10912 849.83808l0.04096-48.98816c1.3312-0.06144 2.64192-0.16384 3.97312-0.26624l-0.04096 48.98816a86.2208 86.2208 0 0 1-3.97312 0.26624M291.08224 849.59232l0.04096-48.98816 2.43712-0.22528-0.04096 48.98816-2.43712 0.22528" fill="#EBF7F1" p-id="37324"></path><path d="M993.4848 729.10848l-699.904 71.2704c-21.79072 2.21184-45.40416-1.37216-52.77696-8.02816L4.44416 578.53952c-7.35232-6.656 4.32128-13.84448 26.13248-16.0768l699.904-71.2704c21.77024-2.21184 45.42464 1.39264 52.77696 8.02816l236.35968 213.8112c7.35232 6.67648-4.36224 13.86496-26.13248 16.0768z" fill="#DFF7EF" p-id="37325"></path><path d="M787.8656 672.84992l-423.87456 43.15136-143.13472-129.47456 423.87456-43.15136z" fill="#1afa29" p-id="37326" data-spm-anchor-id="a313x.7781069.0.i18" class="selected"></path><path d="M726.50752 341.2992l-75.50976-39.50592a123.71968 123.71968 0 0 1 48.29184 1.67936l75.53024 39.50592a123.86304 123.86304 0 0 0-48.31232-1.67936" fill="#ABFFD9" p-id="37327"></path><path d="M774.77888 342.97856l-75.53024-39.50592a115.712 115.712 0 0 1 22.17984 7.7824l75.53024 39.50592a116.1216 116.1216 0 0 0-22.17984-7.7824M796.9792 350.76096l-75.53024-39.50592c1.45408 0.67584 2.8672 1.39264 4.28032 2.12992l75.53024 39.50592c-1.41312-0.73728-2.84672-1.4336-4.28032-2.12992" fill="#ABFFD9" p-id="37328"></path><path d="M656.09728 630.8864l-75.53024-39.50592c-39.34208-20.5824-65.88416-63.54944-66.64192-117.12512-0.28672-20.48 3.19488-40.59136 9.78944-59.47392l75.53024 39.50592a173.01504 173.01504 0 0 0-9.78944 59.47392c0.75776 53.57568 27.29984 96.54272 66.64192 117.12512" fill="#ABFFD9" p-id="37329"></path><path d="M599.2448 454.30784l-75.53024-39.50592a184.5248 184.5248 0 0 1 10.17856-23.6544l75.53024 39.50592a182.0672 182.0672 0 0 0-10.17856 23.6544" fill="#ABFFD9" p-id="37330"></path><path d="M609.42336 430.65344l-75.53024-39.50592c3.33824-6.43072 7.02464-12.65664 11.0592-18.61632l75.53024 39.50592a186.38848 186.38848 0 0 0-11.0592 18.61632M620.50304 412.03712L544.9728 372.5312c3.80928-5.632 7.92576-11.01824 12.30848-16.13824l75.53024 39.50592a178.3808 178.3808 0 0 0-12.30848 16.13824" fill="#ABFFD9" p-id="37331"></path><path d="M632.79104 395.89888l-75.53024-39.50592c4.4032-5.16096 9.07264-10.0352 14.00832-14.60224l75.53024 39.50592a174.85824 174.85824 0 0 0-14.00832 14.60224M646.79936 381.29664l-75.53024-39.50592c5.28384-4.9152 10.83392-9.46176 16.65024-13.6192l75.53024 39.50592a167.15776 167.15776 0 0 0-16.65024 13.6192M663.4496 367.67744l-75.53024-39.50592c7.12704-5.09952 14.6432-9.6256 22.44608-13.43488l75.53024 39.50592a155.25888 155.25888 0 0 0-22.44608 13.43488M685.89568 354.22208l-75.53024-39.50592a142.5408 142.5408 0 0 1 40.59136-12.92288l75.50976 39.50592a143.2576 143.2576 0 0 0-40.57088 12.92288" fill="#ABFFD9" p-id="37332"></path><path d="M655.988479 630.770717a134.02112 156.7744 27.618 1 0 145.353203-277.822419 134.02112 156.7744 27.618 1 0-145.353203 277.822419Z" fill="#f4ea2a" p-id="37333" data-spm-anchor-id="a313x.7781069.0.i17" class=""></path><path d="M789.46304 390.84032a10.24 10.24 0 0 1 10.09664 4.096c3.8912 5.40672 2.60096 13.824-2.84672 18.80064l-42.25024 38.56384 31.5392-4.95616c6.69696-1.04448 12.24704 4.01408 12.34944 11.24352 0.1024 7.24992-5.28384 14.00832-11.9808 15.07328l-40.42752 6.3488 0.45056 31.00672 54.25152-8.51968c6.69696-1.04448 12.24704 3.95264 12.34944 11.20256 0.1024 7.29088-5.28384 14.00832-11.9808 15.07328l-54.25152 8.51968 0.6144 42.35264c0.1024 7.24992-5.28384 14.00832-11.9808 15.07328-6.73792 1.06496-12.24704-4.01408-12.34944-11.24352l-0.6144-42.35264-54.25152 8.51968c-6.73792 1.06496-12.24704-3.95264-12.34944-11.24352-0.1024-7.24992 5.24288-13.96736 11.9808-15.01184l54.25152-8.51968-0.45056-31.00672-40.42752 6.3488c-6.73792 1.06496-12.24704-4.01408-12.34944-11.24352-0.1024-7.24992 5.24288-14.00832 11.9808-15.07328l31.5392-4.95616-43.15136-25.14944c-5.61152-3.23584-7.12704-11.20256-3.35872-17.8176a14.27456 14.27456 0 0 1 9.91232-7.24992 10.50624 10.50624 0 0 1 6.92224 1.2288l50.50368 29.45024 49.41824-45.13792a13.2096 13.2096 0 0 1 6.8608-3.42016z" fill="#FFFFFF" p-id="37334"></path><path d="M300.68736 645.95968l-75.53024-39.50592c-10.5472-5.50912-17.69472-17.03936-17.89952-31.31392l75.53024 39.50592c0.2048 14.27456 7.35232 25.8048 17.89952 31.31392" fill="#ABFFD9" p-id="37335"></path><path d="M364.09344 328.23296l-75.53024-39.50592c4.48512-0.69632 8.8064-0.512 12.82048 0.45056l75.53024 39.50592a32.6656 32.6656 0 0 0-12.82048-0.45056M376.91392 328.68352l-75.53024-39.50592c2.06848 0.49152 4.05504 1.20832 5.9392 2.08896l75.53024 39.50592a29.61408 29.61408 0 0 0-5.9392-2.08896" fill="#ABFFD9" p-id="37336"></path><path d="M382.85312 330.77248l-75.53024-39.50592a19.94752 19.94752 0 0 1 1.14688 0.57344l75.50976 39.50592a14.45888 14.45888 0 0 0-1.1264-0.57344" fill="#ABFFD9" p-id="37337"></path><path d="M316.1088 335.7696l-75.53024-39.50592 47.98464-7.55712 75.53024 39.5264z" fill="#ABFFD9" p-id="37338" data-spm-anchor-id="a313x.7781069.0.i20" class=""></path><path d="M282.78784 614.64576l-75.50976-39.50592-3.33824-232.7552 75.50976 39.50592z" fill="#ABFFD9" p-id="37339" data-spm-anchor-id="a313x.7781069.0.i19" class=""></path><path d="M279.4496 381.89056l-75.53024-39.50592a46.12096 46.12096 0 0 1 2.60096-15.79008l75.53024 39.50592a46.12096 46.12096 0 0 0-2.60096 15.79008" fill="#ABFFD9" p-id="37340"></path><path d="M282.05056 366.10048l-75.53024-39.50592a47.104 47.104 0 0 1 2.74432-6.3488l75.53024 39.50592a46.01856 46.01856 0 0 0-2.74432 6.3488M284.79488 359.75168l-75.53024-39.50592c0.90112-1.7408 1.88416-3.39968 2.9696-5.0176l75.53024 39.50592a48.9472 48.9472 0 0 0-2.9696 5.0176" fill="#ABFFD9" p-id="37341"></path><path d="M287.76448 354.73408l-75.53024-39.50592a45.8752 45.8752 0 0 1 3.31776-4.34176l75.53024 39.50592a45.8752 45.8752 0 0 0-3.31776 4.34176" fill="#ABFFD9" p-id="37342"></path><path d="M291.08224 350.39232l-75.53024-39.50592c1.18784-1.39264 2.43712-2.70336 3.76832-3.93216l75.53024 39.50592c-1.3312 1.2288-2.58048 2.53952-3.76832 3.93216M294.85056 346.46016l-75.53024-39.50592c1.41312-1.31072 2.90816-2.53952 4.48512-3.66592l75.53024 39.50592a44.40064 44.40064 0 0 0-4.48512 3.66592M299.33568 342.79424l-75.53024-39.50592c1.90464-1.37216 3.91168-2.58048 6.00064-3.60448l75.53024 39.50592c-2.08896 1.024-4.096 2.23232-6.00064 3.60448" fill="#ABFFD9" p-id="37343"></path><path d="M305.33632 339.18976l-75.53024-39.50592c3.39968-1.65888 7.02464-2.84672 10.77248-3.44064l75.53024 39.50592c-3.74784 0.59392-7.3728 1.78176-10.77248 3.44064" fill="#ABFFD9" p-id="37344"></path><path d="M364.09344 328.23296c20.48-3.21536 37.49888 12.26752 37.80608 34.42688l3.33824 232.7552c0.32768 22.15936-16.1792 42.9056-36.6592 46.12096l-47.98464 7.53664c-20.48 3.21536-37.49888-12.26752-37.80608-34.42688l-3.33824-232.7552c-0.32768-22.15936 16.1792-42.9056 36.6592-46.12096l47.98464-7.53664z" fill="#f4ea2a" p-id="37345" data-spm-anchor-id="a313x.7781069.0.i14" class=""></path><path d="M503.02976 637.97248l-75.53024-39.50592c-10.5472-5.5296-17.69472-17.05984-17.89952-31.37536l75.53024 39.50592c0.2048 14.336 7.35232 25.86624 17.89952 31.37536" fill="#ABFFD9" p-id="37346"></path><path d="M563.11808 90.2144l-75.53024-39.50592c4.48512-0.69632 8.8064-0.512 12.82048 0.45056l75.53024 39.50592a33.05472 33.05472 0 0 0-12.82048-0.45056M575.93856 90.66496l-75.53024-39.50592c2.06848 0.49152 4.05504 1.20832 5.9392 2.08896l75.53024 39.50592a32.37888 32.37888 0 0 0-5.9392-2.08896" fill="#ABFFD9" p-id="37347"></path><path d="M581.87776 92.75392L506.368 53.248a19.94752 19.94752 0 0 1 1.14688 0.57344l75.53024 39.50592-1.16736-0.57344" fill="#ABFFD9" p-id="37348"></path><path d="M515.13344 97.75104l-75.50976-39.50592 47.98464-7.53664 75.50976 39.50592z" fill="#ABFFD9" p-id="37349"></path><path d="M485.13024 606.6176L409.6 567.0912l-6.63552-462.72512 75.50976 39.5264z" fill="#ABFFD9" p-id="37350"></path><path d="M478.47424 143.89248l-75.53024-39.50592a46.12096 46.12096 0 0 1 2.60096-15.79008l75.53024 39.50592c-1.7408 5.0176-2.6624 10.36288-2.60096 15.79008M481.09568 128.08192l-75.53024-39.50592a47.104 47.104 0 0 1 2.74432-6.3488l75.53024 39.50592c-1.06496 2.048-1.98656 4.17792-2.74432 6.3488" fill="#ABFFD9" p-id="37351"></path><path d="M483.81952 121.73312l-75.53024-39.50592c0.90112-1.7408 1.88416-3.39968 2.9696-5.0176L486.8096 116.736c-1.08544 1.59744-2.08896 3.2768-2.99008 4.99712" fill="#ABFFD9" p-id="37352"></path><path d="M486.8096 116.736l-75.53024-39.50592a45.8752 45.8752 0 0 1 3.31776-4.34176l75.53024 39.50592a45.8752 45.8752 0 0 0-3.31776 4.34176M490.10688 112.37376l-75.53024-39.50592c1.18784-1.39264 2.43712-2.70336 3.76832-3.93216l75.53024 39.50592a56.9344 56.9344 0 0 0-3.76832 3.93216M493.89568 108.4416l-75.53024-39.50592c1.41312-1.31072 2.90816-2.53952 4.48512-3.66592l75.53024 39.50592c-1.57696 1.1264-3.072 2.3552-4.48512 3.66592" fill="#ABFFD9" p-id="37353"></path><path d="M498.36032 104.79616l-75.53024-39.50592c1.90464-1.37216 3.91168-2.58048 6.00064-3.60448l75.53024 39.50592c-2.08896 1.024-4.096 2.23232-6.00064 3.60448M504.36096 101.19168L428.8512 61.68576c3.39968-1.65888 7.02464-2.84672 10.77248-3.44064l75.53024 39.50592c-3.76832 0.59392-7.3728 1.78176-10.79296 3.44064" fill="#ABFFD9" p-id="37354"></path><path d="M563.11808 90.2144c20.48-3.21536 37.49888 12.26752 37.80608 34.42688l2.82624 196.608c-45.95712 42.1888-75.5712 105.08288-74.62912 170.9056 0.8192 56.36096 23.83872 103.54688 59.92448 133.3248-5.3248 4.11648-11.50976 7.02464-18.1248 8.06912l-47.98464 7.53664c-20.48 3.21536-37.49888-12.26752-37.80608-34.46784l-6.656-462.72512c-0.32768-22.15936 16.1792-42.9056 36.6592-46.12096l47.98464-7.55712z" fill="#f4ea2a" p-id="37355" data-spm-anchor-id="a313x.7781069.0.i15" class=""></path><path d="M767.05792 188.60032L691.52768 149.0944c4.48512-0.69632 8.8064-0.512 12.82048 0.45056l75.53024 39.50592a32.6656 32.6656 0 0 0-12.82048-0.45056" fill="#ABFFD9" p-id="37356"></path><path d="M779.85792 189.05088l-75.53024-39.50592c2.06848 0.49152 4.05504 1.20832 5.9392 2.08896l75.53024 39.50592a29.61408 29.61408 0 0 0-5.9392-2.08896M785.8176 191.13984l-75.53024-39.50592a19.94752 19.94752 0 0 1 1.14688 0.57344l75.53024 39.50592a29.92128 29.92128 0 0 0-1.14688-0.57344" fill="#ABFFD9" p-id="37357"></path><path d="M719.0528 196.13696l-75.50976-39.50592 47.98464-7.55712 75.53024 39.5264z" fill="#ABFFD9" p-id="37358"></path><path d="M683.29472 304.35328l-75.50976-39.50592-0.90112-62.09536 75.53024 39.50592z" fill="#ABFFD9" p-id="37359"></path><path d="M682.41408 242.25792L606.88384 202.752a46.12096 46.12096 0 0 1 2.60096-15.79008l75.53024 39.50592a45.62944 45.62944 0 0 0-2.60096 15.79008M685.01504 226.46784L609.4848 186.96192a47.104 47.104 0 0 1 2.74432-6.3488l75.50976 39.50592a48.5376 48.5376 0 0 0-2.72384 6.3488M687.75936 220.11904l-75.50976-39.50592c0.90112-1.7408 1.88416-3.39968 2.9696-5.0176l75.53024 39.50592c-1.10592 1.59744-2.10944 3.2768-2.99008 5.0176" fill="#ABFFD9" p-id="37360"></path><path d="M690.72896 215.10144l-75.53024-39.50592a45.8752 45.8752 0 0 1 3.31776-4.34176l75.53024 39.50592a45.8752 45.8752 0 0 0-3.31776 4.34176M694.04672 210.75968l-75.53024-39.50592c1.18784-1.39264 2.43712-2.70336 3.76832-3.93216l75.53024 39.50592c-1.3312 1.2288-2.58048 2.53952-3.76832 3.93216" fill="#ABFFD9" p-id="37361"></path><path d="M697.81504 206.82752L622.2848 167.3216c1.41312-1.31072 2.90816-2.53952 4.48512-3.66592l75.50976 39.50592a42.00448 42.00448 0 0 0-4.46464 3.66592" fill="#ABFFD9" p-id="37362"></path><path d="M702.27968 203.1616l-75.50976-39.50592c1.90464-1.37216 3.91168-2.58048 6.00064-3.60448l75.50976 39.50592c-2.06848 1.024-4.07552 2.23232-6.00064 3.60448M708.3008 199.55712l-75.50976-39.50592c3.39968-1.65888 7.02464-2.84672 10.77248-3.44064l75.53024 39.50592c-3.7888 0.6144-7.39328 1.78176-10.79296 3.44064" fill="#ABFFD9" p-id="37363"></path><path d="M767.05792 188.60032c20.48-3.21536 37.49888 12.26752 37.80608 34.42688l1.08544 75.6736c-23.83872-8.78592-50.50368-11.65312-78.58176-7.24992a181.76 181.76 0 0 0-44.05248 12.9024l-0.90112-62.09536c-0.32768-22.15936 16.1792-42.9056 36.6592-46.12096l47.98464-7.53664z" fill="#f4ea2a" p-id="37364" data-spm-anchor-id="a313x.7781069.0.i16" class=""></path></svg>
