<svg t="1679040210821" class="icon" viewBox="0 0 1024 1024" version="1.1" xmlns="http://www.w3.org/2000/svg"
     p-id="66145" width="200" height="200">
    <path d="M684.416 635.1872L295.5776 1024H872.96a51.2 51.2 0 0 0 51.2-51.2v-97.8688l-239.744-239.744z" fill="#B3B1A5"
          p-id="66146"></path>
    <path d="M924.1856 874.9312V51.2a51.2 51.2 0 0 0-51.2-51.2h-819.2a51.2 51.2 0 0 0-51.2 51.2v921.6a51.2 51.2 0 0 0 51.2 51.2h241.8176l388.8384-388.8128 239.744 239.744z"
          fill="#D5D5D5" p-id="66147"></path>
    <path d="M833.152 783.8976v97.8944h-142.2336v-142.2336h97.8944l-56.8832-56.8832h-41.0112v-41.0112l-6.5024-6.5024-104.3968 104.3968h53.9904v142.2336H491.776v-54.016l-110.8992 110.8992h480.6656a28.416 28.416 0 0 0 28.4416-28.4416v-69.4272l-56.832-56.9088z"
          fill="#E3E1D3" p-id="66148"></path>
    <path d="M491.8272 739.5584h88.2176l104.3968-104.3968 6.5024 6.5024v-101.2224h142.2336v142.2336h-101.2224l56.8832 56.8832h44.3392v44.3392l56.8832 56.8832V113.792a28.416 28.416 0 0 0-28.4416-28.4416H65.152c-15.7184 0-28.4416 12.7488-28.4416 28.4416v796.4416a28.416 28.416 0 0 0 28.4416 28.4416H380.928l110.8992-110.8992v-88.2176z m199.0912-597.3248h142.2336v142.2336h-142.2336V142.2336z m0 199.0912h142.2336v142.2336h-142.2336v-142.2336z m-199.0912-199.0912h142.2336v142.2336h-142.2336V142.2336z m0 199.0912h142.2336v142.2336h-142.2336v-142.2336z m0 199.1168h142.2336v142.2336h-142.2336v-142.2336z m-256 341.3504H93.5936v-142.2336h142.208v142.2336z m0-199.1168H93.5936v-142.2336h142.208v142.2336z m0-199.1168H93.5936v-142.2336h142.208v142.2336z m0-199.1168H93.5936V142.2336h142.208v142.208z m199.0912 597.3504h-142.208v-142.2336h142.208v142.2336z m0-199.1168h-142.208v-142.2336h142.208v142.2336z m0-199.1168h-142.208v-142.2336h142.208v142.2336z m-142.208-199.1168V142.2336h142.208v142.2336h-142.208z"
          fill="#F1EEE7" p-id="66149"></path>
    <path d="M235.8272 938.6752h56.9088a56.8832 56.8832 0 0 0 56.8832-56.8832V455.1168a56.8832 56.8832 0 0 0-56.8832-56.8832H235.8272a56.8832 56.8832 0 0 0-56.8832 56.8832v426.6752a56.832 56.832 0 0 0 56.8832 56.8832zM747.8272 698.5728V256a56.8832 56.8832 0 0 0-56.8832-56.8832h-56.8832A56.8832 56.8832 0 0 0 577.1776 256v486.4512l107.264-107.264 63.3856 63.3856z"
          fill="#F98F46" p-id="66150"></path>
    <path d="M684.416 635.1872l-107.264 107.264v139.3408c0 31.4112 25.472 56.8832 56.8832 56.8832h56.8832a56.8832 56.8832 0 0 0 56.8832-56.8832v-183.2192l-63.3856-63.3856zM434.9184 938.6752h56.8832a56.8832 56.8832 0 0 0 56.9088-56.8832v-110.8992l-152.4224 152.4224c10.1632 9.472 23.68 15.36 38.6304 15.36z"
          fill="#DD722A" p-id="66151"></path>
    <path d="M491.8272 597.3248H434.944a56.8832 56.8832 0 0 0-56.8832 56.8832v227.5584c0 16.4352 7.0912 31.1296 18.2528 41.5232l152.4224-152.4224v-116.6592a56.9344 56.9344 0 0 0-56.9088-56.8832z"
          fill="#F98F46" p-id="66152"></path>
    <path d="M809.7792 808.9856m-211.6352 0a211.6352 211.6352 0 1 0 423.2704 0 211.6352 211.6352 0 1 0-423.2704 0Z"
          fill="#F9C82D" p-id="66153"></path>
    <path d="M809.7792 808.9856m-169.9584 0a169.9584 169.9584 0 1 0 339.9168 0 169.9584 169.9584 0 1 0-339.9168 0Z"
          fill="#E8B321" p-id="66154"></path>
    <path d="M789.1712 864.1536h-42.752a11.6736 11.6736 0 0 1-9.1904-4.992 21.504 21.504 0 0 1-3.8656-10.0864c0.4352-3.6864 1.7408-6.7328 3.8656-9.088s5.1968-3.6864 9.1904-3.9936h42.752v-13.952l-42.752-0.2304a12.7232 12.7232 0 0 1-9.1904-4.1984 17.2032 17.2032 0 0 1-3.8656-9.5232c0.4352-3.6864 1.7408-6.7328 3.8656-9.088s5.1968-3.6864 9.1904-3.9936h31.8976l-29.696-52.2752c-1.4848-1.7664-2.8928-4.0192-4.1984-6.7584s-1.92-5.7344-1.7664-8.9856a20.8896 20.8896 0 0 1 4.4288-10.0864c2.2272-2.5856 6.3488-4.2496 12.416-4.992a17.8432 17.8432 0 0 1 9.5232 3.6608c2.816 2.1504 5.0944 4.48 6.8608 6.9888l33.664 61.5936 36.992-62.0288c1.7664-2.5088 4.0704-4.736 6.8608-6.656a21.248 21.248 0 0 1 9.5232-3.5328c2.2272 0.1536 4.2496 0.4352 6.0928 0.896a11.776 11.776 0 0 1 8.3968 6.656 25.0624 25.0624 0 0 1 2.0992 7.5264 19.7376 19.7376 0 0 1-4.4288 12.1856l-34.3296 55.8336h32.5632c3.84 0.3072 6.8608 1.6128 9.088 3.9936a14.3872 14.3872 0 0 1 3.7632 9.088 16.6144 16.6144 0 0 1-3.8656 9.7536 12.8 12.8 0 0 1-9.1904 4.4288l-42.3168 0.2304v13.5168h42.5472c3.84 0.3072 6.8608 1.7664 9.088 4.4288a16.384 16.384 0 0 1 3.7632 9.5232 16.4352 16.4352 0 0 1-3.7632 9.6256 12.8 12.8 0 0 1-9.088 4.3264l-42.5472-0.2304v23.4752c-0.5888 12.544-7.4496 18.8416-20.608 18.8416-6.5024 0-11.5456-1.5616-15.1808-4.6592-3.6096-3.0976-5.5808-7.8336-5.8624-14.1824l0.0256-23.04z"
          fill="#C18B10" p-id="66155"></path>
</svg>
