<?xml version="1.0" standalone="no"?><!DOCTYPE svg PUBLIC "-//W3C//DTD SVG 1.1//EN" "http://www.w3.org/Graphics/SVG/1.1/DTD/svg11.dtd"><svg t="1681095916183" class="icon" viewBox="0 0 1024 1024" version="1.1" xmlns="http://www.w3.org/2000/svg" p-id="1028" xmlns:xlink="http://www.w3.org/1999/xlink" width="200" height="200"><path d="M548.977778 261.688889h-92.444445c-1.422222 0-2.844444-1.422222-1.422222-2.844445l45.511111-108.088888h4.266667l45.511111 108.088888c1.422222 1.422222 0 2.844444-1.422222 2.844445zM263.111111 543.288889v-96.711111h-2.844444l-112.355556 48.355555c-1.422222 1.422222-1.422222 2.844444 0 2.844445l112.355556 48.355555c1.422222 0 2.844444-1.422222 2.844444-2.844444zM300.088889 361.244444l65.422222-65.422222c1.422222-1.422222 1.422222-2.844444 0-2.844444l-110.933333-44.088889c-1.422222-1.422222-2.844444 0-1.422222 1.422222l44.088888 110.933333a1.422222 1.422222 0 0 0 2.844445 0zM490.666667 321.422222c-81.066667 5.688889-156.444444 81.066667-160.711111 160.711111a162.133333 162.133333 0 0 0 11.377777 73.955556 7.111111 7.111111 0 0 0 11.377778 1.422222l213.333333-213.333333a7.111111 7.111111 0 0 0-1.422222-11.377778 187.733333 187.733333 0 0 0-73.955555-11.377778z" fill="#F7DF4A" p-id="1029"></path><path d="M558.933333 732.444444h-112.355555c-1.422222 0-2.844444 1.422222-1.422222 2.844445l55.466666 130.844444a2.844444 2.844444 0 0 0 4.266667 0l55.466667-130.844444c0-1.422222 0-2.844444-1.422223-2.844445zM732.444444 551.822222v-112.355555c0-1.422222 1.422222-2.844444 2.844445-1.422223l130.844444 55.466667c1.422222 1.422222 1.422222 2.844444 0 2.844445l-130.844444 56.888888c-1.422222 0-2.844444 0-2.844445-1.422222zM702.577778 374.044444l-79.644445-79.644444c-1.422222 0 0-1.422222 0-2.844444l133.688889-52.622223c1.422222 0 2.844444 1.422222 1.422222 2.844445l-52.622222 132.266666zM374.044444 702.577778l-79.644444-79.644445h-2.844444l-52.622223 132.266667c0 1.422222 1.422222 4.266667 2.844445 2.844444l132.266666-52.622222c1.422222 0 1.422222-2.844444 0-2.844444zM625.777778 701.155556l79.644444-79.644445h2.844445l52.622222 132.266667c1.422222 1.422222 0 2.844444-1.422222 1.422222l-132.266667-52.622222c-1.422222 1.422222-1.422222 0-1.422222-1.422222zM627.2 352.711111L362.666667 618.666667a9.955556 9.955556 0 0 0 0 14.222222 193.422222 193.422222 0 0 0 159.288889 56.888889A196.266667 196.266667 0 0 0 696.888889 514.844444a194.844444 194.844444 0 0 0-58.311111-162.133333 8.533333 8.533333 0 0 0-11.377778 0z" fill="#F7B531" p-id="1030"></path></svg>