<svg t="1679034692572" class="icon" viewBox="0 0 1024 1024" version="1.1" xmlns="http://www.w3.org/2000/svg" p-id="10091" width="200" height="200"><path d="M529.749333 592.213333v-205.824c-123.221333 0-222.890667 99.669333-222.890666 222.890667 0 123.221333 99.669333 222.890667 222.890666 222.890667 81.578667 0 152.917333-44.032 191.829334-109.568l-191.829334-130.389334z" fill="#FDA789" p-id="10092"></path><path d="M529.408 272.725333V216.405333h-34.816v56.32c5.802667-0.341333 11.605333-0.682667 17.408-0.682666s11.605333 0.341333 17.408 0.682666zM512 791.210667c-5.802667 0-11.605333-0.341333-17.408-1.024v38.570666c5.802667 0.341333 11.605333 0.682667 17.408 0.682667s11.605333-0.341333 17.408-0.682667v-38.570666c-5.802667 0.682667-11.605333 1.024-17.408 1.024zM512 345.429333c5.802667 0 11.605333 0.341333 17.408 1.024V307.541333c-5.802667-0.341333-11.605333-0.682667-17.408-0.682666s-11.605333 0.341333-17.408 0.682666v38.570667c5.802667-0.341333 11.605333-0.682667 17.408-0.682667zM734.890667 568.32c0 5.802667-0.341333 11.605333-1.024 17.408h38.570666c0.341333-5.802667 0.682667-11.605333 0.682667-17.408 0-5.802667-0.341333-11.605333-0.682667-17.408H733.866667c0.682667 5.802667 1.024 11.605333 1.024 17.408zM289.109333 568.32c0-5.802667 0.341333-11.605333 1.024-17.408H251.562667c-0.341333 5.802667-0.682667 11.605333-0.682667 17.408 0 5.802667 0.341333 11.605333 0.682667 17.408H290.133333c-0.682667-5.802667-1.024-11.605333-1.024-17.408zM251.562667 585.728H216.405333c8.874667 149.504 128.682667 269.312 278.186667 278.186667v-34.816c-130.048-8.874667-234.496-113.322667-243.029333-243.370667z" p-id="10093"></path><path d="M772.437333 550.912h34.816c-8.874667-149.504-128.682667-269.312-278.186666-278.186667v34.816c130.389333 8.874667 234.837333 113.322667 243.370666 243.370667zM494.592 307.541333V272.725333c-149.504 8.874667-269.312 128.682667-278.186667 278.186667h34.816c8.874667-130.048 113.322667-234.496 243.370667-243.370667zM529.408 828.757333V863.573333c149.504-8.874667 269.312-128.682667 278.186667-278.186666h-34.816c-8.874667 130.389333-113.322667 234.837333-243.370667 243.370666zM512 829.44c-5.802667 0-11.605333-0.341333-17.408-0.682667V863.573333c5.802667 0.341333 11.605333 0.682667 17.408 0.682667s11.605333-0.341333 17.408-0.682667v-34.816c-5.802667 0.341333-11.605333 0.682667-17.408 0.682667z" p-id="10094"></path><path d="M512 307.2c5.802667 0 11.605333 0.341333 17.408 0.682667V272.725333c-5.802667-0.341333-11.605333-0.682667-17.408-0.682666s-11.605333 0.341333-17.408 0.682666v34.816c5.802667-0.341333 11.605333-0.341333 17.408-0.341333zM807.594667 550.912h-34.816c0.341333 5.802667 0.682667 11.605333 0.682666 17.408 0 5.802667-0.341333 11.605333-0.682666 17.408h34.816c0.341333-5.802667 0.682667-11.605333 0.682666-17.408-0.341333-5.802667-0.341333-11.605333-0.682666-17.408zM250.88 568.32c0-5.802667 0.341333-11.605333 0.682667-17.408H216.405333c-0.341333 5.802667-0.682667 11.605333-0.682666 17.408 0 5.802667 0.341333 11.605333 0.682666 17.408h34.816c-0.341333-5.802667-0.341333-11.605333-0.341333-17.408zM494.592 390.144v160.768h34.816v-160.768c-5.802667-0.341333-11.605333-0.682667-17.408-0.682667-5.802667 0-11.605333 0.341333-17.408 0.682667zM494.592 600.064l121.173333 83.285333c3.413333-4.437333 7.168-9.216 10.24-13.994666 3.413333-4.778667 6.485333-9.898667 9.216-14.677334l-121.173333-83.285333-19.456 28.672z" p-id="10095"></path><path d="M494.592 550.912h34.816v49.152h-34.816zM431.104 181.589333h161.792v34.816h-161.792zM705.536 345.429333l35.84-43.690666-26.965333-22.186667-35.84 43.690667c4.778667 3.413333 9.216 6.826667 13.653333 10.581333 4.778667 3.754667 9.216 7.509333 13.312 11.605333z" p-id="10096"></path><path d="M691.739307 260.983467l22.14912-26.862934 69.003946 56.886614-22.14912 26.862933z" p-id="10097"></path></svg>
