<svg t="1679040341250" class="icon" viewBox="0 0 1024 1024" version="1.1" xmlns="http://www.w3.org/2000/svg" p-id="68163" width="200" height="200"><path d="M662.86 349.55c0 46.29-9.62 33.06-9.62 95.54 0 55.88 57.95 105.37 115.9 92.2 15.81-2.63 31.61-7.9 44.78-23.71 10.54-13.17 13.17-26.34 10.54-42.15-2.63-7.9-13.17-15.81-15.81-7.9-5.27 15.81-13.17 28.98-26.34 36.88-36.88 15.81-76.39-15.81-84.29-52.68-7.9-44.78 18.44-84.29 57.95-102.73 34.24-15.81 71.12-13.17 102.73 2.63 60.59 34.24 84.29 102.73 70.87 165.34 1.25 3.4 2.62 6.24 3.8 9.53 14.48 24.39 22.8 52.86 22.8 83.28 0 90.19-73.13 123.65-163.32 123.65-9.64 0-19.1-0.84-28.21-2.45-3.93 5.93-8.16 11.61-12.72 17.02-31.88 37.8-79.59 61.83-132.93 61.83-53.55 0-101.44-24.21-133.34-62.3-30.08 16.23-64.51 25.42-101.1 25.42-112.5 0-204.64-47.36-212.78-157.77-0.39-5.26-0.59-10.57-0.59-15.93 31.61-10.54 71.12 0 92.2-34.24 5.27-10.54 13.17-31.61-2.63-34.24-50.05-7.9-89.56-50.05-68.49-97.47 23.71-52.68 89.56-76.39 134.34-44.78 18.44 13.17 34.24 34.24 46.13 54.81 2.52 3.85 4.42 6.01 6.31 7.99 44.12 40.73 107.22 56.47 166.2 24.13 52.68-28.98 79.03-97.47 55.32-152.78-18.44-36.88-55.32-65.85-100.1-60.59-23.71 2.63-42.15 13.17-57.95 31.61-15.81 21.07-15.81 44.78-5.27 65.85 2.63 5.27 7.9 2.63 7.9 0 0-18.44 5.27-34.24 15.81-47.42 21.07-21.07 50.05-23.71 76.39-10.54 39.51 23.71 47.42 73.76 23.71 110.64-21.07 28.98-55.32 44.78-89.56 42.15-57.95-5.27-100.1-57.95-100.1-113.27 2.63-47.42 28.98-92.2 73.76-115.9 68.49-36.88 158.21 2.73 191.08 50.84 17.9 26.2 26.63 51.06 26.63 77.51z" fill="#FFBBA6" p-id="68164"></path><path d="M515.64 829.3c-27.99 0-54.89-6.07-79.96-18.04-21-10.02-40.27-24.21-56.21-41.34a224.436 224.436 0 0 1-42.32 15.5c-18.18 4.64-37.01 7-55.96 7-61.15 0-113.79-13.67-152.22-39.52-21.11-14.2-37.97-32.04-50.09-53.01-12.79-22.12-20.34-47.81-22.44-76.35-0.21-2.78-0.36-5.59-0.46-8.37-0.1-2.8-0.16-5.64-0.16-8.44 0-5.17 3.31-9.75 8.21-11.38 11.29-3.76 22.98-5.07 34.29-6.33 6.1-0.68 11.87-1.33 17.43-2.33 16.91-3.04 26.74-8.87 33.78-20.05 2.86-5.81 4.77-11.53 5.13-15.38 0.05-0.52 0.07-0.95 0.06-1.3-27.77-4.57-52.43-18.5-67.74-38.3-17.5-22.62-20.71-49.53-9.05-75.77 12.78-28.4 36.96-50.43 66.35-60.48 30.23-10.34 61.53-6.42 85.88 10.77 9.54 6.82 18.91 15.84 27.9 26.85 7.54 9.24 14.78 19.82 21.52 31.45 0.88 1.33 1.71 2.47 2.51 3.46 0.73 0.9 1.41 1.65 2 2.27 20.93 19.23 45.54 31.75 71.17 36.21 27.44 4.77 55.4-0.08 80.84-14.03 23.15-12.73 41.2-34.1 50.82-60.15 9.63-26.08 9.4-53.43-0.62-77.06-8.56-16.99-21.28-31.58-35.85-41.11-15.88-10.38-33.85-14.75-51.96-12.61-10.3 1.14-19.29 3.91-27.54 8.47-8.05 4.44-15.39 10.57-22.44 18.73-3.31 4.47-5.81 9.13-7.47 13.95 2.1-3.66 4.5-7.17 7.17-10.51 0.28-0.35 0.57-0.68 0.88-0.99 12.06-12.06 27-19.51 43.22-21.53 15.45-1.93 31.72 1.09 47.03 8.75 0.27 0.14 0.54 0.29 0.81 0.44 21.7 13.02 36.32 33.75 41.16 58.35 4.66 23.71-0.14 48.23-13.53 69.06-0.12 0.19-0.25 0.38-0.39 0.57-11.49 15.8-26.86 28.5-44.46 36.74-17.53 8.2-36.8 11.77-55.73 10.32-0.06 0-0.11-0.01-0.17-0.01-30.63-2.78-58.97-17.7-79.81-42.01-20.12-23.48-31.21-53.03-31.21-83.21 0-0.22 0.01-0.44 0.02-0.67 1.43-25.72 9.34-50.8 22.87-72.52 13.99-22.46 33.79-40.9 57.25-53.32 33.95-18.28 75.95-20.87 118.19-7.27 37.01 11.92 70.06 35.08 88.41 61.94 9.7 14.19 16.72 27.78 21.47 41.52 4.89 14.15 7.26 28.14 7.26 42.77 0 22.82-2.34 32.66-4.6 42.19l-0.53 2.24c-2.37 10.13-4.5 21.67-4.5 51.11 0 23.03 11.89 46.46 31.8 62.69 20.48 16.69 45.79 23.18 69.44 17.8 0.23-0.05 0.46-0.1 0.69-0.13 8.2-1.37 14.61-3.24 20.17-5.9 6.66-3.19 12.32-7.62 17.28-13.56 4.02-5.05 6.59-10.05 7.83-15.28 0.56-2.35 0.87-4.82 0.94-7.45-1.56 3-3.24 5.81-5.04 8.44-5.45 7.96-12.13 14.35-19.87 18.99-0.46 0.28-0.95 0.53-1.45 0.74-20.75 8.89-44.25 6.09-64.49-7.7-18.18-12.38-31.73-32.38-36.26-53.5-0.03-0.14-0.06-0.29-0.08-0.43-4.27-24.21 0.12-48.23 12.69-69.45 11.78-19.87 29.76-35.86 52-46.25 18.41-8.5 37.86-12.41 57.88-11.65 18.97 0.72 37.58 5.57 55.29 14.43 0.18 0.09 0.36 0.19 0.54 0.29 31.27 17.67 54.92 44.64 68.41 77.98 2.48 6.14-0.48 13.14-6.63 15.62-6.14 2.48-13.14-0.48-15.62-6.63-11.39-28.17-31.34-50.96-57.7-65.94-14.55-7.23-29.76-11.19-45.19-11.78-16.2-0.62-31.97 2.56-46.87 9.44-17.55 8.19-32.29 21.24-41.46 36.71-9.57 16.15-12.94 34.41-9.74 52.82 3.31 15.16 13.11 29.53 26.26 38.48 7.72 5.26 23.2 12.92 40.77 5.79 4.52-2.85 8.36-6.63 11.72-11.54 3.39-4.96 6.25-10.99 8.73-18.42 1.68-5.06 5.16-8.78 9.79-10.5 4.9-1.81 10.47-1.1 15.67 2.03 5.9 3.54 10.93 9.82 13.11 16.37 0.2 0.59 0.35 1.2 0.45 1.82 1.63 9.79 1.47 18.57-0.49 26.81-2.09 8.78-6.18 16.89-12.51 24.8l-0.15 0.18c-7.24 8.69-15.56 15.21-25.44 19.94-7.57 3.62-15.92 6.12-26.24 7.87a98.657 98.657 0 0 1-21.54 2.37c-24 0-47.93-8.67-68.04-25.05-25.45-20.74-40.64-51.13-40.64-81.29 0-32 2.43-45.02 5.13-56.57l0.55-2.32c2.12-8.93 3.95-16.64 3.95-36.64 0-11.92-1.95-23.35-5.95-34.93-4.04-11.7-10.13-23.42-18.6-35.82-15.2-22.25-44.31-42.42-75.94-52.61-35.97-11.59-71.32-9.6-99.53 5.59-19.8 10.48-36.43 25.97-48.19 44.84-11.35 18.22-18 39.24-19.26 60.83 0.08 24 9.34 48.5 25.43 67.26 16.72 19.51 39.33 31.48 63.68 33.72 14.78 1.12 29.87-1.69 43.63-8.13 13.83-6.47 25.93-16.44 35.02-28.84 9.74-15.31 13.38-33.94 9.99-51.16-3.48-17.71-13.98-32.67-29.57-42.17-10.93-5.38-22.3-7.52-32.9-6.19-10.82 1.35-20.49 6.14-28.75 14.22a58.499 58.499 0 0 0-9.43 17.51c-2.21 6.64-3.34 14-3.34 21.89 0 7.07-5.3 13.27-12.61 14.73-7.37 1.47-14.45-2.2-18.03-9.36-6.4-12.81-9.26-25.93-8.49-39 0.83-14.09 5.84-27.35 14.89-39.42 0.16-0.21 0.32-0.41 0.49-0.61 9.03-10.53 18.62-18.52 29.33-24.43 11.08-6.11 22.99-9.81 36.41-11.3 23.69-2.79 47.17 2.87 67.82 16.37 18.42 12.04 33.75 29.6 44.34 50.78 0.11 0.21 0.2 0.42 0.3 0.64 12.59 29.37 13.02 63.17 1.22 95.15-11.61 31.47-33.55 57.35-61.78 72.87-30.28 16.61-63.65 22.36-96.51 16.64-30.31-5.27-59.22-19.96-83.61-42.47-0.18-0.16-0.35-0.33-0.52-0.51-0.93-0.97-2.19-2.31-3.59-4.05-1.37-1.69-2.71-3.54-4.1-5.66-0.12-0.19-0.24-0.38-0.35-0.58-6.15-10.65-12.72-20.27-19.51-28.59-7.64-9.36-15.44-16.91-23.2-22.45-17.93-12.66-41.36-15.45-64.21-7.63-23.14 7.92-42.17 25.25-52.21 47.57-10.11 22.76-2.26 40.45 6.12 51.28 11.58 14.97 31.51 25.96 53.3 29.4 0.03 0.01 0.07 0.01 0.1 0.02 13.22 2.2 20.58 12.6 19.19 27.13-0.85 8.9-4.71 18.13-7.8 24.32-0.16 0.31-0.33 0.62-0.51 0.92-13.79 22.42-34.1 28.63-50.24 31.53-6.35 1.14-12.79 1.86-19.02 2.56-7.32 0.82-14.36 1.6-20.95 3 0.09 1.97 0.21 3.95 0.35 5.91 3.58 48.54 24.44 85.95 61.99 111.22 34.46 23.18 82.47 35.44 138.83 35.44 16.95 0 33.78-2.1 50.02-6.25 15.77-4.03 31.04-9.99 45.38-17.73a12.01 12.01 0 0 1 14.9 2.86c14.86 17.75 33.72 32.38 54.52 42.31 21.82 10.41 45.24 15.69 69.62 15.69 24.28 0 47.61-5.24 69.36-15.57 20.73-9.85 39.54-24.37 54.39-41.99 2.1-2.48 4.17-5.09 6.15-7.75 1.95-2.61 3.88-5.36 5.74-8.16a12.01 12.01 0 0 1 12.08-5.19c4.23 0.75 8.55 1.31 12.87 1.69 4.37 0.38 8.83 0.58 13.26 0.58 45.61 0 83.25-8.99 108.84-25.99 28.19-18.73 42.48-47.54 42.48-85.65 0-6.63 5.37-12 12-12s12 5.37 12 12c0 23.72-4.78 44.89-14.2 62.93-8.92 17.08-22.04 31.45-39 42.71-29.97 19.91-71.05 30-122.12 30-5.12 0-10.29-0.22-15.35-0.67-2.42-0.21-4.84-0.47-7.25-0.79-0.7 0.98-1.41 1.94-2.12 2.9-2.27 3.04-4.64 6.02-7.03 8.86-17.05 20.22-38.64 36.88-62.44 48.19-25.01 11.87-51.81 17.89-79.68 17.89zM154.62 548.82z" fill="#9E1919" p-id="68165"></path></svg>
