<?xml version="1.0" standalone="no"?><!DOCTYPE svg PUBLIC "-//W3C//DTD SVG 1.1//EN" "http://www.w3.org/Graphics/SVG/1.1/DTD/svg11.dtd"><svg t="1681096337183" class="icon" viewBox="0 0 1024 1024" version="1.1" xmlns="http://www.w3.org/2000/svg" p-id="2062" xmlns:xlink="http://www.w3.org/1999/xlink" width="200" height="200"><path d="M802.133333 517.688889h-11.377777a126.577778 126.577778 0 0 0-14.222223-91.022222 120.888889 120.888889 0 0 0-73.955555-58.311111 125.155556 125.155556 0 0 0-82.488889 4.266666L260.266667 689.777778a4.266667 4.266667 0 0 0 2.844444 8.533333h541.866667a91.022222 91.022222 0 0 0 91.022222-99.555555 92.444444 92.444444 0 0 0-93.866667-81.066667z" fill="#A1C6E6" p-id="2063"></path><path d="M423.822222 278.755556a153.6 153.6 0 0 0-152.177778 139.377777v27.022223h-17.066666a174.933333 174.933333 0 0 0-38.4 2.844444c-45.511111 8.533333-88.177778 54.044444-88.177778 99.555556a105.244444 105.244444 0 0 0 73.955556 103.822222 11.377778 11.377778 0 0 0 11.377777-2.844445L544.711111 355.555556a9.955556 9.955556 0 0 0 2.844445-12.8 149.333333 149.333333 0 0 0-123.733334-64z" fill="#C3D6E6" p-id="2064"></path></svg>