<?xml version="1.0" standalone="no"?><!DOCTYPE svg PUBLIC "-//W3C//DTD SVG 1.1//EN" "http://www.w3.org/Graphics/SVG/1.1/DTD/svg11.dtd"><svg t="1681096073549" class="icon" viewBox="0 0 1024 1024" version="1.1" xmlns="http://www.w3.org/2000/svg" p-id="1760" xmlns:xlink="http://www.w3.org/1999/xlink" width="200" height="200"><path d="M790.755556 423.822222h-11.377778a120.888889 120.888889 0 0 0-12.8-92.444444 118.044444 118.044444 0 0 0-72.533334-61.155556 109.511111 109.511111 0 0 0-79.644444 5.688889L265.955556 601.6a5.688889 5.688889 0 0 0 2.844444 8.533333h524.8a93.866667 93.866667 0 0 0-2.844444-186.311111z" fill="#A1C6E6" p-id="1761"></path><path d="M423.822222 177.777778a152.177778 152.177778 0 0 0-146.488889 143.644444v28.444445h-17.066666a110.933333 110.933333 0 0 0-36.977778 2.844444c-44.088889 9.955556-85.333333 55.466667-85.333333 102.4a109.511111 109.511111 0 0 0 71.111111 108.088889 11.377778 11.377778 0 0 0 11.377777-2.844444l321.422223-302.933334a11.377778 11.377778 0 0 0 1.422222-14.222222 142.222222 142.222222 0 0 0-119.466667-65.422222z" fill="#C3D6E6" p-id="1762"></path><path d="M213.333333 695.466667m0-9.955556l0-8.533333q0-9.955556 9.955556-9.955556l158.008889 0q9.955556 0 9.955555 9.955556l0 8.533333q0 9.955556-9.955555 9.955556l-158.008889 0q-9.955556 0-9.955556-9.955556Z" fill="#A1C6E6" p-id="1763"></path><path d="M581.688889 763.733333m0-9.955555l0-8.533334q0-9.955556 9.955555-9.955555l128.142223 0q9.955556 0 9.955555 9.955555l0 8.533334q0 9.955556-9.955555 9.955555l-128.142223 0q-9.955556 0-9.955555-9.955555Z" fill="#C3D6E6" p-id="1764"></path><path d="M766.577778 762.311111m0-9.955555l0-8.533334q0-9.955556 9.955555-9.955555l26.595556 0q9.955556 0 9.955555 9.955555l0 8.533334q0 9.955556-9.955555 9.955555l-26.595556 0q-9.955556 0-9.955555-9.955555Z" fill="#C3D6E6" p-id="1765"></path><path d="M433.777778 695.466667m0-9.955556l0-8.533333q0-9.955556 9.955555-9.955556l358.968889 0q9.955556 0 9.955556 9.955556l0 8.533333q0 9.955556-9.955556 9.955556l-358.968889 0q-9.955556 0-9.955555-9.955556Z" fill="#A1C6E6" p-id="1766"></path><path d="M213.333333 763.733333m0-9.955555l0-8.533334q0-9.955556 9.955556-9.955555l299.377778 0q9.955556 0 9.955555 9.955555l0 8.533334q0 9.955556-9.955555 9.955555l-299.377778 0q-9.955556 0-9.955556-9.955555Z" fill="#C3D6E6" p-id="1767"></path></svg>