<svg viewBox="0 0 1080 1080" xmlns="http://www.w3.org/2000/svg" id="upgrade_our_products"><defs><style>.cls-1{fill:#f9f1cb;}.cls-2{fill:#9a702d;}.cls-3{fill:#fed251;}.cls-4{fill:#72ccd1;}.cls-5{fill:#e8a1a4;}.cls-6{fill:#f2d0b9;}.cls-7{fill:#efca87;}.cls-8{fill:#483613;}</style></defs><title>upgrade our products</title><path d="M412,285.48s-13.82-14.39-30.11-5.11-37.13,46-36.18,51.9,25.95,2.46,30.31,4.35,5.68,5.31,5.68,16.29V634s24.06.94,24.44-16.29,2.65-139.4,2.65-139.4l-1.33-115.16s-1.71-14.58,14.4-14.58,40.15,4,39.58-9.29S412,285.48,412,285.48Z" class="cls-1" id="path2665"></path><path d="M359,719.58S371,730.83,379.6,731.37s1.88,176,1.88,176h28.4V677.8s-7.5,18.75-12.73,22.9-31.34,1.47-35.22-1.87S359,719.58,359,719.58Z" class="cls-1" id="path2667"></path><path d="M273.51,694s-20.27-26.14-37.69,1.32-29.74,44.14-14.59,45.08,9.48,23.49,9.28,61.37,15.35,77.65,37.51,90.34,67.61,16.11,67.61,16.11l6.82-1.33s-45.27-29.17-68-73.86-18.94-73.87-16.86-80.5,10.6-8.71,19.51-9.28,22.35,2.27,20.45-10.61S273.51,694,273.51,694Z" class="cls-1" id="path2669"></path><path d="M548.09,679.14s-17.41-5.09-26.52,20.09-21.7,33.48-2.68,37.5,17.41,51.69,9.1,90.53-56,79.56-56,79.56h39.65l47.94-55.18s-7-8.74-6.91-15.75,7.1-5.59,7.29-14.87-2.47-41.19-3.89-50.57S552.59,752.27,560,751s25.38,1.13,24.43-13.92-36.33-58-36.33-58Z" class="cls-1" id="path2671"></path><path d="M354,388c-11.53-2-27.06-36.83-65.7-28.5s-139.77,32.58-139.77,32.58H355Z" class="cls-1" id="path2673"></path><path d="M407.61,234.16s-21.6-38.64,8.71-52.28,42.43,28,42.43,28,20.07-1.89,19.69,14.4-20.74,21.32-20.74,21.32-.29-25.06-17-29.62-33.07,18.15-33.07,18.15Z" class="cls-1" id="path2675"></path><path d="M822.51,587.8s-1.79-16.95-27.06-10.18-73.39,18.88-105.27,17.14S645.72,612,666.61,618.07s53,5.62,55.72,9.51-1.34,21.56-7.5,27.18.39,18,.93,29.74,3.89,143,4.29,157.36-1.21,33.22-6.7,39-15.13,2.69-15.13,2.69-2.94,19.81-9.24,23.17l-6.3,3.35h65.76s-6.29-36.7-10.44-56.39-9.35-155.26-6.7-174.39,2-27.84,8.71-34.81,8.43-15.54,9-19.29,4.29-2.14,15.14-5.89,38.7-13.39,47.27-20.22,11.12-11.25,11.12-11.25Z" class="cls-1" id="path2677"></path><path d="M697.58,568.64s6.06-18,18.57-24.62,38.45-2.29,44.75,10.83,5.62,13.66-5.9,13.66-57.42.13-57.42.13Z" class="cls-1" id="path2679"></path><path d="M801.21,421.46s-2.28-15.54,8.84-21.3,22.1-4,20.36,6.44-9.38,15.69-17,19.15S801.21,421.46,801.21,421.46Z" class="cls-1" id="path2681"></path><path d="M809.78,260.48c-2.28-1.34-9.64-13.53-9.91-21s8.57-.94,26.38-2.54,33.08-7.1,37.64-1.21,7.77,19.15,7.77,19.15,10.71-.4,12.59,5.9-.94,14.46-3.75,20.62-5.09,6.16-10.45,6.7-8.57,4.42-12,10.44-5.09,9.91,1.07,11.25,7,16.61,4.15,23.71-2.55,9.37-9.38,10-7-2.14-7-2.14l7-30s-10,11.65-11.92-4.15,11.39-19.69,10.85-33.62-2.81-22.5-15.13-22.76S809.78,260.48,809.78,260.48Z" class="cls-2" id="path2683"></path><path d="M791.43,249.09a19.18,19.18,0,0,0-8.56,16.61c.13,10.44,2.11,15.78,2.11,15.78s8.33-24.08,11.81-26.77S791.43,249.09,791.43,249.09Z" class="cls-2" id="path2685"></path><path d="M777.7,388.24c-.47.09-18.14,1.35-18.14,5.63s-.81,49-8.57,63.88-18.35,22-28.13,24.78S696.75,540,696.75,540s25.85-1.08,28.26-2.82,25.17-47.81,25.17-47.81L768,451.5s-11.74,7.86-10.42-4.08,13.07-18.93,13.93-20.55,6.15-38.63,6.15-38.63Z" class="cls-3" id="path2687"></path><path d="M868.58,393.34s-8,26.25-15.27,42.06-17.55,19.81-17.55,19.81l22.1,15.94s9-38.57,14.2-51.16,13.93-21.16,13.39-21.43S868.58,393.34,868.58,393.34Z" class="cls-3" id="path2689"></path><path d="M845.94,498.87l-25.85-31.34s-3.08,7.77-14.33,11.12A74.71,74.71,0,0,1,786.48,482S766.79,517.35,768,519.23s36.69,11.11,36.69,11.11l-38.71-.8L755.4,547.89a15.3,15.3,0,0,1,7,9.91c1.2,6.7,1.34,10.85,10.31,9.91s30.94-6.56,38-3.75a184.21,184.21,0,0,1,16.6,8s1.75-24.25,6.7-41.39a234.56,234.56,0,0,1,11.92-31.74Z" class="cls-3" id="path2691"></path><path d="M694.2,650.08s-34.42-7-38.3-10.85-14.47,25.71-19.82,42.85-45.81,104.6-51.3,118-13,27.85-17.54,33.08,4.82,16.6,24.64,10.58,28.79-26,28.79-26l61.48-100.84,21-34.56Z" class="cls-4" id="path2693"></path><path d="M738.67,648.2s34.28,0,47.94-5.62,37.1-10.45,41.25-6,29.33,37.1,38.44,49.28,28.79,38.71,18.35,63.75-51.85,85.12-54.51,92.69,6.43,12.31-13.8,15.54-41.11-6.44-34.42-20.36,7.78,2.41,16.61-5.49,23-55.85,26.25-67a74.45,74.45,0,0,0,2.14-27.72c-.66-4.56,3.62-11.25-7.76-20.76s-64-49.28-64-49.28l-18.22,7.22-4.82,1.88S730.76,660.12,738.67,648.2Z" class="cls-4" id="path2695"></path><path d="M829.19,313.71a7.55,7.55,0,1,1-7.55-7.55A7.55,7.55,0,0,1,829.19,313.71Z" class="cls-5" id="path7004-5-5-1-7-6-7-12-0-1-2-5-0-4"></path><path d="M666.21,441.89s10,14.44,7.51,27.13-5.49,18-5.49,18l28.6-21.78s-4.72-10.1-17.81-19.89-12.81-3.45-12.81-3.45Z" class="cls-6" id="path2551"></path><path d="M908.75,514.74c-.2-.53-3.28-14.2,7.44-23.3s12.32-10.38,12.32-10.38-1.88-8.44-11.92-2.48-21.3,16.74-20,22,12.18,14.13,12.18,14.13Z" class="cls-6" id="path2558"></path><path d="M426.67,137.9c-9,0-18.25.61-24.19,1.79-33,6.55-57.9,20.9-82.84,47.75-21.53,23.2-36.51,51.37-37,69.6l-.17,6.23-4.5.56c-21,2.63-32.9,9.64-39.19,23.08-3.07,6.56-4.08,14.2-2.58,19.54l.74,2.62-8.24.46c-17.47,1-29.16,11.28-35.18,31.05l-2.61,8.52-6.22,2.27c-11,4-56.1,22.12-59.94,24.07-10.69,5.43-10.48,13.77.48,18.35,9.11,3.81,55.41,4.74,130.74,2.63,21.17-.59,51.81-1.08,68.09-1.08h29.59l.66,15.16c.36,8.33.65,26.27.65,39.86v24.7l-4,7.39c-5.58,10.18-6.67,11.12-12.91,11.12-4.18,0-7.18-1-15.69-5.12-17.72-8.61-22.41-7.26-35.49,10.22-7.79,10.41-7.85,12.86-.72,28.72,5.95,13.26,6.89,17.74,4.18,20.06-1,.85-5.65,3.18-10.33,5.16-21.13,8.94-23.3,10.49-24.63,17.57-1,5.42,1.28,22.54,3.64,27.18,2.26,4.43,8.31,8,20.19,11.9,8.39,2.76,11.44,5.14,12.92,10.06s.16,10.52-4.53,19.88c-6.42,12.77-6.48,22.47.13,30.19,2.81,3.28,6.83,6.19,12.08,8.84,11.25,5.65,14.37,5.15,23.69-3.8,15.21-14.6,21.15-12.48,29,10.33l2.72,7.91-.34,105.93-.34,107.26-3.68-.49c-11.61-1.56-41.13-26-56.34-45.52-20.91-26.77-31.53-54-34.61-88.81-1.08-12.28-1-14.12.42-17.17,2.94-6.16,5.42-7,20.71-7.13,18.27-.14,20.92-1.59,20.94-11.4a30.5,30.5,0,0,0-2.25-11c-3.81-9.24-16.69-27.2-32.34-45.1-10.26-11.74-15.19-14.82-25.13-15.69-12.9-1.13-18.71,4.23-43.57,40.19-14.94,21.6-18,27.9-17.42,35.4.4,4.78.94,6,4,8.81,4.45,4.07,12,6.39,20.92,6.39,5.15,0,5.85,8.07,4.66,16-3,20-3.22,58.2-.49,74.47,3.29,19.64,8.73,33.51,18.94,48.31,2.77,4,6.15,8.18,7.5,9.25l3.14,3,21-.33.26-.09c-8-.51-10.39-2.81-17.19-6s-20.07-25.83-24-41.12c-1.14-4.39-2.78-13.39-3.65-20-2.17-16.41-1.38-53.2,1.56-73,1.14-7.7-1.56-16.5-7.72-16.5-15.84,0-24.08-4.27-22.85-11.86a36.31,36.31,0,0,1,3.21-8.5c3.25-6.28,24.73-37.65,32-46.77,8.91-11.15,17-13.42,28-7.89,6.56,3.28,12.4,9.82,30.23,33.88,9.69,13.09,13.51,19.95,14.68,26.4,1.14,6.27.1,6.73-14.92,6.74-11.09,0-13.7.24-16.63,1.93-10.86,6.28-10.42,10.9-10.33,27.07.1,16.72,2.19,28.64,7.9,45.06,11.59,33.3,35.53,64.45,64.78,84.29,3.94,2.67,7.34,5,7.57,5.25h0l20.58,1.92,6.31-.19.35-102.18.34-100.85,5.5,1.26c9.21,2.12,16.15,2.57,23.85,1.57,8.33-1.09,10.8-2.79,14.79-10.13l2.45-4.5-.6,11.5c-.9,17.48-2.43,162.33-1.79,170a180.78,180.78,0,0,1-.17,19.37l-.73,15.23,6.89-1.07.67-79.61c.35-43.12.94-95,1.3-115.22.77-43.92,0-41.17,12-41.17,7.06,0,8.69.4,16.34,4,11.57,5.43,17.18,5.51,25,.35a42.87,42.87,0,0,0,15.8-17.72c3.72-8,3.49-12.54-1-19.26-6.33-9.54-8-13.69-8.58-21.24-.83-11.14.41-13.12,11.81-18.83,11.2-5.6,16.19-9.54,19.19-15.14,1.92-3.6,2.22-5.68,2.22-15.65,0-9.25-.37-12.24-1.88-15.29-2.25-4.52-3.47-5.24-13-7.68-13.73-3.51-18.28-7-19.32-14.75-.46-3.46.12-5.27,4-12.42,5.2-9.65,6.26-14.18,4.69-20-1.47-5.49-8.61-12.39-17.82-17.23-6.13-3.22-7.72-3.65-11.38-3.11-4.77.7-6.94,2.18-17.88,12.12-4.19,3.82-9.52,7.78-11.83,8.83-3.81,1.72-4.43,1.75-6.7.37l-2.5-1.51L412.58,447l-.24-52.55s51.13-2.12,81.13-2.71c41.39-.81,88.32-4.43,109.75-8.48,14.55-2.74,21.9-10,17.1-16.85-1.56-2.22-2.09-2.32-9.24-1.78-14.25,1.08-93.82-4.17-92.92-6.13.18-.37,1.56-3,3.07-5.91,4-7.66,5.74-15.46,5.74-26.23,0-8.46-.33-10.23-2.92-15.71-4.57-9.65-11.84-15.8-23.28-19.65-1.48-.5-1.06-1.82,3.15-9.88,9.68-18.52,14.47-38.69,14.47-60.79,0-21.75-4.33-36.7-14.64-50.58-9.89-13.31-30.46-24.76-54.06-30.1-5.17-1.17-14-1.75-23-1.74Zm-15,767.92,24.25-.56.31,0c.12,0-.19,0-.17,0a53.23,53.23,0,0,1,7.57-6.49c29.25-19.84,53.19-51,64.78-84.29,5.71-16.42,8.34-28.81,8.43-45.53,0-4.81-.26-9.36-.49-12.56-.54-7.55-3.75-11.18-9.31-14.24-3-1.63-6.61-1.73-17.7-1.73-15,0-16-.47-14.91-6.74,1.16-6.45,5-13.31,14.68-26.4,17.83-24.06,23.66-30.6,30.23-33.88,11.06-5.53,19.13-3.26,28,7.88,7.29,9.12,28.77,40.5,32,46.78a37.06,37.06,0,0,1,3.21,8.5c1.23,7.58-7,11.86-22.85,11.86-6.16,0-11.69,1.72-7.73,16.5,2.44,9.09,2.27,21.62,2.64,36.72l.57,22.71a10.2,10.2,0,0,0,7.23-5.59l-.7-16.79c-.39-9.23-1.62-23.39-2.75-31.45-2.15-15.38-2.86-16.11,4.77-16.11,8.88,0,16.47-2.32,20.92-6.39,3.09-2.83,3.63-4,4-8.81.62-7.5-2.48-13.8-17.41-35.4-24.87-36-30.68-41.31-43.58-40.19-9.94.87-14.87,3.94-25.13,15.68-15.65,17.91-28.53,35.87-32.33,45.11a30.51,30.51,0,0,0-2.26,11c0,9.81,2.67,11.26,20.94,11.4,15.29.11,17.78,1,20.71,7.12,1.46,3.06,2.44,10.26,1.36,22.54-3.08,34.78-14.64,56.68-35.54,83.44-16.7,21.39-45.5,44.48-58.39,45.55ZM427.48,145c13.82.07,17.32.43,25.7,2.65a130.7,130.7,0,0,1,18.35,6.61c29.45,13.8,41.55,35.4,40.1,71.59-.81,20.27-4.38,35.64-12.77,55l-3.9,9-7.35.15c-9.12.18-16.63,3.07-16.63,6.41,0,2,.31,2.09,3.75,1.3a84.75,84.75,0,0,1,13.25-.86c11.73,0,17.47,2,24.32,8.4,8.6,8,10.52,14.16,8.73,27.8-1.27,9.61-4.29,17.35-9,23.08-1.67,2-3,4.24-3,4.93,0,2.4,4.56,4.13,12.5,4.77,4.4.35,14.75,1.27,23,2,26.22,2.48,50.22,3.76,61,3.28,5.76-.26,10.47-.08,10.47.38,0,1.58-6.41,4.77-11.47,5.72-16,3-75.92,7.11-103.32,7.11-21.2,0-90,2.39-90,2.39l-.4-4.89c-.67-8.26.83-22.76,2.51-26.76,1.42-3.43,4.08-3.85,6.47-3.7l16.56.19c20.47.25,21.58.17,24.3-1.85a14.79,14.79,0,0,0,4.18-5.65c1.17-3.06,1.13-4.32-.29-9.22-1.58-5.42-3.06-7.11-33.7-38.51-35-35.93-36.43-37-47.16-37-13.06,0-18.34,3.94-53.4,39.92-27.78,28.5-29.28,30.23-30.85,35.61-1.42,4.89-1.46,6.15-.29,9.21a14.79,14.79,0,0,0,4.18,5.65c2.72,2,3.83,2.1,24.3,1.85l16.84-.2c2.61,0,5.14.18,6.18,3.67.94,3.16,3.12,20.35,3.31,30.9l0,2.1-53.75.64c-146.19,1.73-167.14,1.6-173.4-1.09-6.62-2.84-4.26-4.68,17.26-13.42,26.09-10.6,44.93-18.73,49.39-21.31,3.55-2.07,4.15-3,5.36-8.17,4-17.26,17-29.36,31.5-29.36,5.38,0,13.9,2.45,19.26,5.55,2.26,1.31,4.4,2.1,4.75,1.75,2.35-2.36-1.84-7.6-8.19-10.23-5.8-2.4-6.76-12.19-2.11-21.5,8-16,29.58-23,53.93-17.65a108.51,108.51,0,0,1,12.82,3.61c6.65,2.67,8.69-1.19,2.7-5.11-3.86-2.54-14.68-6.25-20.44-7l-5.08-.67v-4.95c0-9.18,8.2-29.37,17.58-43.29,10.65-15.82,28.35-34.59,42.82-45.43,15-11.23,34.63-19.82,54.26-23.74C409,145.39,415.91,144.92,427.48,145Zm7.76,67.4a27.94,27.94,0,0,0-11,1.92c-5.29,2.4-13.58,10.06-15.69,14.49-2,4.13-2.06,9.15-.19,9.87s2.6-.13,2.6-2.41c0-5.17,12.45-15.64,20.67-17.37,9.65-2,19.56,6.91,24.33,22a44.16,44.16,0,0,0,1.73,4.8h0a1.38,1.38,0,0,0,1.62.4c.72-.26,1.07-2.41.93-5.72-.45-10.15-8.72-23.18-16.89-26.59a22.64,22.64,0,0,0-8.12-1.34ZM383,265.89a21.74,21.74,0,0,1,9,1.9c4.73,2.48,61.91,60.55,64.75,65.73,1.23,2.27,2.25,5.12,2.25,6.34,0,4.61-1.8,5-25.38,5H416.91c-2.91,0-6.25,2.07-8.25,6-4,8.32-4.57,16.09-3.44,48,1.09,30.92.42,103.2-1.29,140-.65,13.75-1,38.35-.74,54.66l.43,29.67L400,625.21a48.91,48.91,0,0,1-9.53,3.58c-8.83,2.3-17.08,1.57-25.85-2.31l-4.43-2-.7-6.59c-.89-8.27-.11-67.13,1.61-121.86,1.34-42.64.77-42.71-2-122.74-.53-15.32-2.81-20.82-3.65-22.5-1.69-3.1-4.34-6-10.06-6h-15c-23.58,0-25.38-.36-25.38-5,0-4.88,5.69-11.65,33.5-39.81C370.42,267.71,372.93,265.78,383,265.89Zm430.63,115a23.26,23.26,0,0,0-17.37,6.47,31.56,31.56,0,0,0-6.84,7.28l-2.6,4.17c-4.1,9.52-1.31,13.48-.59,15.29,1.12,2.85,1.79,2.81.25,6.25-.91,2-4.26,5-3.33,5.49L808,437.92c-.49-1.27,5.69-9.58,7.58-9.58,5.88,0,12.83-5.24,15.85-11.94.77-1.69,3.61-8.35,3.57-12.46,0-.85-.42-2.1-.6-3.35-.88-6.1-2.49-10-5.72-13.82a15.67,15.67,0,0,1-2.09-3.37C823.7,382.16,822.88,379.92,813.61,380.91Zm.55,7c5,0,6.07.34,8.76,2.91,8.09,7.74,5.61,24.21-4.52,30.15-5.34,3.13-7.56,2.94-16-1.4-8.31-4.25-11.71-11.06-8.88-17.83A23,23,0,0,1,814.16,387.87Zm-21.7,34c.87-.05,2.16.63,4.2,2a23.18,23.18,0,0,0,6.61,3.14c1.87.37,2.7,1.1,2.49,2.16-.46,2.38-3.73,4.9-10.55,2.09-5-2.06-4.9-5.53-4.49-7.08S791.58,421.92,792.46,421.88Zm-29.4,33.95-19.79,39.5-19.79,39.5-10.5.62a98.92,98.92,0,0,0-14.81,1.81c-2.37.65-5,1.46-5.92,1.8s-2.28.37-2.25-.1c-1.64,2.31-1.69,5.75-2,8.42a58.33,58.33,0,0,1,10.73-3.73c9-2.19,27.41-2.16,36.64.07,12.62,3,20.52,8.44,25,17.12,1.52,2.94,1.5,3-1.19,3.73h0c-1.5.41-22.2,1-46,1.41-48.19.75-45.63,1.13-40.75-6.06a52.78,52.78,0,0,1,10.31-10.81,36.41,36.41,0,0,1-5.4-1.35c-2.55-1.6-11.75,9.4-11.81,9.88s-.17,4.23-.31,4.94c-.46,2.39-1,2.75-4.09,2.75h-3.56l-22.35.28H635c-.45.41-2,.81-5.24,1.62-7.6,1.91-12,4.85-14.2,9.46-5,10.44,1.69,22,18.54,32.22,2.93,1.78,18.61,9.67,23.48,11.32a157.83,157.83,0,0,0,19.1,5.26l7.25,1.24V631c0,5.92,3.29,11.8,3.29,11.8l2.9,5.15c4.33,7.7,6.68,15.23,8,25.63l1.18,9.34.15,10.15.68,4.86c1.14,8.07,1,125.54-.18,143.37-1.25,19-3.29,34.21-6.09,45.27-2.56,10.11-4.71,16.13-8.13,18.16h0c-.55.32-3.38.78-2.3.78H695.4c.36,0-.23-.52-.07-.89,4.89-11.1,8.65-30.22,10.81-52.82,1.87-19.62,1.89-149.72,0-167.5-1.18-11.19-2.95-21.54-4.74-27.64-.58-2-.33-2.11,3.71-1.71,4.77.47,9.34-1.33,9.34-3.69,0-1.08-1.71-1.62-6.54-2-4.61-.4-7.45-1.23-9.65-2.87-4.83-3.56-9-12.27-8.42-17.56.07-.63,7.1-1,18.86-1,10.31,0,22.69-.34,27.5-.76,8-.69,8.76-.6,8.73,1-.07,5.6-8.28,16.75-14.5,19.7-1.91.91-3.48,2.27-3.48,3,0,1.64,3.49,3,5.16,1.92.83-.52,1-.17.42,1.18-3.78,9.58-5.57,33.1-5.57,72.72,0,49.11,2.85,92.91,8.41,129.7,1.37,9.07,3.2,22.12,4.06,29s2.63,17.56,2.63,17.56h0l.58,3.25,8.6-.45c1-.05-1.41-.8-1.84-1.6-.6-1.12-2.67-12.42-4-22.9S742.29,858,741.47,853c-1.85-11.3-5-43.32-6.65-66.65-1.31-19-1.77-100.85-.59-105.1a4.6,4.6,0,0,1,.19-.56l.87-9.15.81-6c1.58-11.55,2.52-15.64,6.66-19.78,7.83-7.84,7.77-15.11,7.77-15.11a37.44,37.44,0,0,1,1-5.11c.14-.16,4.92-1.35,10.62-2.65,18.08-4.1,33.38-10.12,46.68-18.37l7.83-4.85,4.74-3.82,4.56-5.87c4.21-5.42,4.86-7,4.3-15a22.61,22.61,0,0,0-6.77-8.71l-.19-.11a10.61,10.61,0,0,1-1.81-.94,48.08,48.08,0,0,0-9.45-3.43c-6.48-1.66-10.62-1.59-22.52.4-3.3.55-9.61,1.29-14,1.64l-8,.63-1.25-4.65a26.57,26.57,0,0,0-12.06-15.94c-2.8-1.65-5.11-3.36-5.11-3.78a43,43,0,0,1,3-6.7l3-5.92h0l2-3.42,6.6-12.59c3.63-6.92,9.6-18.12,13.25-24.89,5.46-10.1,6.45-11.9,8.43-12l-6.4-3.32h-.06c-.62-.1-2.13,4.51-3.52,6.78-2.7,4.4-12.42,22.41-26.73,49.55-3.12,5.91-6.21,10.69-6.87,10.62-4.3-.48-11.71-2.27-11.44-2.77.18-.33,8.33-16.71,18.11-36.39l17.79-35.79-3.08-7.42h0ZM453.69,482.22c3,0,6.13,1.93,11.23,5.87,9.54,7.35,11.3,10.22,9.95,16.2a44,44,0,0,1-4.69,10.49c-3.42,5.58-3.69,6.59-3.51,12.92.16,5.37.73,7.67,2.61,10.52,2.9,4.38,10.13,8.5,18.8,10.7a60.79,60.79,0,0,1,8.07,2.51c3.76,2,5.89,19.18,3.21,25.89-2,5.09-8,10.25-16.39,14.2-10,4.7-12.57,7.05-15,13.56-1.63,4.34-2,6.93-1.54,10.52,1.11,8.47,4.48,17.44,8.6,22.91,5.63,7.46,5.73,8.57,1.49,16.51a30.13,30.13,0,0,1-9.93,11.56c-8.76,6.6-10.39,6.75-21.16,1.94-24.15-10.79-34.69-6.5-43.31,17.61-2.17,6.06-4.16,9.87-5.85,11.2h0c-2.21,1.73-3.95,2-12.67,1.9-13-.15-18.63-1.26-20.76-4.08-.92-1.22-2.89-6.29-4.38-11.27-3.65-12.16-5.85-16.59-10.74-21.58-3.95-4-11.47-4.18-15.17-2a64,64,0,0,0-13.15,9.16c-3.5,3.25-7.22,5.92-8.26,5.92-2.41,0-14.73-6.19-18.66-9.38-2.84-2.3-7.3-9.8-.18-21.92s8.36-22,3.91-30.19c-2.26-4.14-3.78-5.52-8.91-8.08a67.35,67.35,0,0,0-12-4.45c-7.91-1.88-10.7-5-12.82-14.26-1.89-8.26-1.33-16.58,1.32-19.56.93-1,5.28-3.32,9.68-5.06,12.61-5,20.76-9.37,22.88-12.31,3-4.19,2.47-10-1.9-19.79-3.95-8.89-6.44-16.9-6.46-20.8,0-3.4,10.43-15.33,15.2-18.07a7.41,7.41,0,0,1,7.49-.38l8.71,4.27c9.8,4.82,11.58,5.37,17.5,5.4,7.86,0,11.89-1.82,15.66-7.18l2.63-3.74-.6,7c-.33,3.85-.6,12.51-.6,19.25v12.26l-6.37,6.39c-16.35,16.44-24.19,38.74-20.23,57.6a52.19,52.19,0,0,0,14.1,26.46c7.26,7.3,13.45,12.54,14.83,12.54a50.16,50.16,0,0,1,7.34,2.53c8.58,3.43,19.75,4.25,28.22,2.07,9.54-2.44,15.78-6.21,24.14-14.58,6-6,8.48-9.43,12.2-17,5.58-11.38,7.62-18.64,8.42-30,1.26-17.81-6.05-33.19-19.79-41.67l-6.08-3.75.72-12.54c.39-6.89.85-12.69,1-12.87s1.3.2,2.52.85a8.92,8.92,0,0,0,5.11.6c2.85-.57,14.12-7.64,15.35-9.62a91.76,91.76,0,0,1,7.59-7c4.7-4,7.61-6.07,10.62-6.1Zm-42.21,56,4.3,3.12c4.94,3.59,9.41,10.14,11.79,17.3,1.28,3.87,1.54,7.38,1.17,15.61a65.21,65.21,0,0,1-10.84,33.73c-5.27,8.1-6.49,9.13-7.29,6.16s-.59-69.43.23-73.1Zm-59,1.88,0,39.63c0,21.8-.23,39.64-.48,39.64-1.72,0-10.71-11.56-13.73-17.68-3.15-6.37-3.75-8.67-4.13-16a65.91,65.91,0,0,1,.76-14.19c1.66-7.73,8.15-20.66,13.32-26.53Zm450.41,26.58c8.2.16,18.3,4.13,21,9,1.42,2.53,1.37,3-.74,7-4.5,8.39-11.79,14.66-23.71,20.39-19,9.14-39.81,14.88-62.73,17.33-11.43,1.21-41.35,1.15-51.18-.11-21.15-2.71-42.94-10.61-51.55-18.69-1-.92-3.45-3-5.5-4.52-8.09-6.22-10.15-15.3-4.53-20a15.94,15.94,0,0,1,6.5-3.09l7.22-1.16c2.07-.35,24.45-.55,49.75-.46,57.53.2,96.91-1.61,110.22-5.06a19.78,19.78,0,0,1,5.25-.55Zm-632,300.69c0,1.18-1.91.36-3.05,1.4-1.68,1.52-2,2.71-1.62,5.9a29.92,29.92,0,0,0,1.21,5.74c.61,1.5-.09,1.39-5-.78-22.19-9.82-44.91-10.61-47.16-1.63-.84,3.33.64,4.37,13.67,9.69,6.32,2.58,11.66,4.85,11.85,5s-1.15,1-3,1.74c-4.45,1.86-9.81,6.47-10.91,9.36l-.89,2.33c-1,2.62,8,0,13.5-.8-8.78-.33-6.79-1.4-.29-4.2,3.9-1.68,7.32-2.27,13.71-2.36,7.1-.11,8.55-.4,8.82-1.81.4-2.07-2.2-3.53-7.89-4.44a27.12,27.12,0,0,1-8.45-3.28,106,106,0,0,0-12.27-6c-4.5-1.89-8.18-3.87-8.18-4.39,0-1.58,12.46.06,22.86,3a144.48,144.48,0,0,1,21.09,8.52c6.31,3.19,12.27,5.8,13.25,5.8,3.3,0,1.91-3.58-2.68-6.87-3.44-2.48-4.72-4.18-5.55-7.42-.59-2.32-1.26-4.77-1.49-5.46-.77-2.28,1-1.3,7.55,4.15,7.1,5.92,14.27,13.73,18.3,20.33l2.66,4.22h0l6.28.06-1.64-4.3c-3.85-10.06-23.54-30.4-31.86-32.89-1.23-.37-2.81-1.34-2.82-.62Z" class="cls-7" id="path10637"></path><path d="M955,865.39a32.83,32.83,0,0,0-4,.25c-12.76,1.58-27.69,8.19-38.62,17.09-5.22,4.26-5.44,4.33-5.44,2,0-10.58-7.92-10.45-16.66.28-5,6.16-10.34,16-10.34,19.11,0,.79-.11,1.26-.87,1.56l6.7.16c-.52-.32-.3-1,.21-2.28,1.49-3.92,9.33-15.59,12.32-18.34l2.65-2.42v5.27c0,4.57-.47,5.81-3.5,9.36-1.93,2.24-3.5,5.13-3.5,6.4s-.24,2-1.59,2.18l3.09.08,6.67-6.39c17.77-17,37.61-27.59,51.14-27.4.44,0,.87,0,1.29.06l4.43.3-11.62,8.5c-6.4,4.68-14.17,10-17.27,11.81-7.09,4.15-9.59,6.59-8.83,8.58.51,1.32,1.55,1.1,7-1.47a38.55,38.55,0,0,1,13.55-3.61c8.5-.72,8.9.09,2.84,5.72v0l-4.25,3.95,9.43-.31,2.47-2.59c3.87-4.08,4.28-7.51,1.25-10.55a8.89,8.89,0,0,0-5.1-2.55c-1.4,0-2.52-.33-2.48-.75s4.11-3.37,9-6.58,9.69-6.94,10.57-8.29c3.34-5.09-1.85-9.12-10.64-9.12Z" class="cls-7" id="path10647"></path><path d="M1035.35,909.59c0,11.83-98,22.73-255.8,28.45s-350.6,5.37-503.31-.93S35,919.58,45.08,907.77l494.75,1.82Z" class="cls-1" id="path10657"></path><path d="M799.5,215h0a13.27,13.27,0,0,0-4.76,1,17.33,17.33,0,0,0-10.1,19.71c1,4.33,1,4.39-2.3,6-13.21,6.3-13.5,36.08-.52,54.45,1.6,2.26,1.82,3.91,1.4,10.39-.62,9.46,1.29,25.5,3.86,32.36,3.66,9.8,12.62,17.36,20.64,17.42,3,0,4.29,1.26,2.42,2.41a50.57,50.57,0,0,1-7.61,1.6c-10.92,1.74-16.84,5.65-20,13.2-.84,2-2.32,3.89-3.29,4.17s-9.2,1.25-18.27,2.15c-22.27,2.21-31.74,5.48-53,18.26-18.48,11.14-48.64,35.57-50.46,40.88-.61,1.75-4.31,6.12-8.34,9.85-19.06,17.6-34.53,48.31-31.72,57.69,1.43,4.77,9.17,11.29,17.09,16.42,3.24,2.1,6.07,3.93,6.27,4.07s-1.89,2.31-4.67,4.81c-6,5.4-9.21,11.5-9.21,17.51,0,5.24,3.29,12.49,6.68,14.71,9.65,8.56,24,1.3,24,1.3l3.92-2.92c1.79-1.33,10.28-11.49,14.71-13.37.92-.39,10.34,3.58,11.75-1.66a21.12,21.12,0,0,1,2.22-7.18c.26-.48,9.65-24.78,14.86-40.57l6.33-19.2,14.54-7.8c13.56-7.28,14.74-8.15,17.59-12.94,5.15-8.64,8.6-26.84,10.63-56.1l1.19-17.24,3.06-.47c1.69-.25,6.7-.72,11.15-1.06l8.1-.6L775.38,391c-3.18,9.49-6.64,27.18-6,30.79.46,2.71,0,3.31-4.16,6-5.25,3.37-9.69,10.89-10.81,18.33-.93,6.14.61,9,5.08,9.36l3.59.31c2.91,17.7,23.07,18.8,23.63,18.88,5.64.84,16.51-1.26,22.79-4.4l6-3,8.15,8.54c4.49,4.69,10.71,11.67,13.84,15.48l5.68,6.94-2.65,5.62c-6.13,13-12.82,37.81-14.15,52.61-.76,8.44-1.06,10.34-3.08,9.63l.18.11a22.61,22.61,0,0,1,6.77,8.71c-.06-1-.15-2-.24-3.12-.3-3.53,3-23.68,5.64-34,3.29-13.07,10.26-34.5,11.23-34.5.42,0,5.23,5.5,10.69,12.22,24.54,30.21,39.78,41.1,59.48,42.49,6.32.45,8.18.21,11.5-1.51,15.91-8.19,20-29,11.13-56.27l-3.26-10,2.27-2.12a11.85,11.85,0,0,0,3.39-11.6,92.46,92.46,0,0,0-7.69-15.63c-9.05-14.93-13-23.46-16.5-33.07-6.34-17.67-17.1-25.51-43.8-37.58l-12.43-5.62-1.29-6.32c-1.6-7.85-5.34-13.66-10.19-15.85l-3.7-1.67.72-5c1.33-9.24,1.48-9.51,5.47-9.51,4.89,0,10-3.34,12.63-8.35,1.85-3.47,2.22-5.74,2.22-13.82,0-9.65,0-9.68,2.62-10.21,4.09-.81,9.52-6.58,10.85-11.53,1-3.56.9-5.2-.34-9-1.42-4.31-1.4-4.74.35-6.62,4.1-4.39,7.33-12.77,7.81-20.19.47-7.21-2.71-14.31-9.76-14.31-2.78,0-3.08-.27-2.49-2.15a39.6,39.6,0,0,0,.65-8.39c-.06-8.67-2.54-13.25-9.17-16.86-7.7-4.19-16.22-4.45-39.1-1.19-10.22,1.46-19.33,2.36-20.25,2S807,224,807,222.42c0-4.66-3.09-7.45-7.48-7.41Zm-.89,6.45a4.55,4.55,0,0,1,.53,0c1.91.27,2.39,1,2.65,4.16.27,3.35.77,4,4,5.37,3.4,1.42,5,1.36,20.68-.81,27.86-3.87,38-2.84,42.56,4.31,1.9,3,2.05,4.35,1.59,14.08-1.29,8,.74,11.09,4.25,10.15,3.8-.51,5.11-.28,6.54,1.15C884,262.5,883,270.16,879,279c-3.17,7-3.31,7.14-6.13,6.33-6.89-2-15.7,4-18.09,12.31a46.42,46.42,0,0,1-4.52,9.46,32.47,32.47,0,0,1-3.71,5.25c-.81,0-2.61-6.34-2.61-9.18,0-4,2.55-9.73,5.89-13.32,5.63-6,6.87-22.86,2.15-29.23-5.12-6.93-13.37-8.17-29-4.36-11.94,2.9-12.93,2.78-19.33-2.49-9.79-8.06-15.07-19.2-12.25-25.86C793.06,224,796,221.44,798.61,221.46ZM787.32,246c1,.09,1.86,1.21,4,4.1,3.38,4.56,3.45,4.81,1.77,6.73-5.09,5.84-8.11,15-8.11,24.65,0,3.15-.41,6-.92,6.3s-1.95-2.47-3.21-6.19c-4.68-13.76-2.55-31.3,4.23-34.81A4.58,4.58,0,0,1,787.32,246Zm12.32,12,3.06,2.27c4.57,3.38,10.8,3.66,23.24,1,12.15-2.55,16.53-2.24,20,1.41,2.87,3.06,4.34,9.61,3.47,15.48-.51,3.47-1.75,5.79-5,9.43-4.48,5-6.37,9.65-6.37,15.67,0,8.77,4.47,15.72,9.49,14.76,2.11-.4,2.49-.19,2,1.12-1.51,3.84-7.4,28.28-8.53,35.41l-1.24,7.79-7.1,4.1C821.52,372.9,819,375.06,819,378.14c0,1.29-.13,2.52.22,2.62,2.16.66,4.91,1.58,7.42,2.64a9.41,9.41,0,0,1-.82-2.56c-.29-2.63.36-3.27,7.69-7.64,9.88-5.89,12.91-6.7,15.71-4.21,2.45,2.18,5.73,9,5.77,11.93,0,2.43-6.48,12-12.38,18.24-5.06,5.34-5.27,4.26-7.56,4.79-.06,3.43-1.57,7.29-2,8.6.79-.6,3.13-1.24,4.27-1.74,2.29-1,6.53-4.24,9.41-7.19l5.24-5.36-2.62,7.29c-5.16,14.38-13.66,29.42-19.8,35-1.65,1.52-3.7,2.75-4.55,2.75-1.23,0-33.64-19-44-19-2,0-4-.31-4.35-.67-1.25-1.25-.68-7.82,1.54-17.77L780.4,396l1.37,5.43a25,25,0,0,0,2.85,6.32,32.63,32.63,0,0,1,2.2-8.89l.6-11.5c.47-8.91,1-12.06,2.44-14,2.67-3.64,7.24-6,12.94-6.66l5-.6-3.66,9.1c-1.93,4.77-3.66,7.31-4.67,9.55a24.23,24.23,0,0,1,8.62-3.44l2.36-5.88c1.22-3.06,2.5-6.85,2.89-8.39,1.24-4.95,6.91-12.57,10.16-13.67,4.3-1.45,10.48-6.81,10.48-9.08s-2.65-2.56-5.53-.58c-4,2.73-13.68,5.65-18.76,5.65-9.68,0-15.38-6.25-18.36-20.14-2.42-11.3-1.25-52.4,1.73-60.35a33.67,33.67,0,0,1,4.34-8.21Zm70.21,33.45c3,.15,5.13,2.69,5.13,7s-2.33,7.71-6.6,9.5a17.26,17.26,0,0,1-4.12,1.31,45.52,45.52,0,0,1-7.08-2.44c-.91-.74,5-11.47,7.3-13.31a8.61,8.61,0,0,1,4.77-2q.32,0,.6,0Zm-61.7,7.19c-2.59,0-11.14,4.43-11.88,6.35s.75,4.49,3.68,6a6.86,6.86,0,0,0,8.89-3.25c1.57-3.44,1.43-8.35-.26-9A1.1,1.1,0,0,0,808.15,298.66Zm49.72,14.9a4.49,4.49,0,0,1,2.61,1.42c1.43,1.43,1.65,3,1.28,9.29-.52,8.71-2.53,13.36-6.75,15.55-3.57,1.84-5.06,1.92-4.94.26.31-4.1,6.6-26.18,7.54-26.48A1.09,1.09,0,0,1,857.87,313.56ZM746.64,386.33c2.72-.08,2.41,2.94,1.89,11.25-1.61,25.57-5,47.24-8.77,56C737,460,732.89,463,716.49,470.81c-7.57,3.59-13.87,6.52-14,6.52a44,44,0,0,1-.75-6.39c-1-12.81-9.08-22.28-26-30.56l-9.85-4.83,16.78-12.48c24.66-18.35,38.64-26.89,55.15-33.69,4.42-1.83,7.15-3,8.78-3.05Zm114.57,5.06c1.19.09,3.59,1.1,8.54,3.38,5.11,2.35,9.51,4.51,9.8,4.8s-.86,2.57-2.55,5.07c-3.8,5.62-6.92,12.61-11.58,25.92-2,5.65-5,15.53-6.81,22l-3.22,11.69-12.28-8.37-12.28-8.37,2.6-1.7c3.46-2.27,12.53-16,16.94-25.77,3.08-6.77,8.68-22.75,9.76-27.85C860.24,391.62,860.5,391.34,861.21,391.39Zm25.11,12.14c2.51.07,12.89,7,18.67,12.81,3.79,3.79,6.67,10.87,7.46,12.65,5,11.17,6.23,17.27,17.3,35.62,7.39,12.27,7.47,16.21,5.31,19.61-.64,1-1.43.08-3-3.5-1.15-2.69-2.5-5.56-3-6.39-1.31-2.2-8.93-1.64-14.17,1s-15,11.79-17.52,16.49c-1,1.92-2.12,3.48-2.4,3.45a31,31,0,0,1-4.52-3.61c-2.2-2-9.76-8.07-16.79-13.57-9.06-7.09-12.65-10.47-12.32-11.64.26-.9,1.9-6.81,3.66-13.14,6.69-24.11,17.24-49.05,21.07-49.79ZM777,430.66c.49,0,1,0,1.52,0,12.1.4,30.53,9.45,57,27.51,34.16,23.37,60.67,45.89,72.6,61.69,3.31,4.37,4.44,5.27,5.53,4.37a4.2,4.2,0,0,0,1.37-2.82c0-2.49-5.41-10.57-11.14-16.62-3.76-4-4.88-5.83-4.41-7.31,1-3,14.26-15.11,18.93-17.23,7.21-3.27,7-3.46,12.48,13.37,6.24,19.25,7.51,25.75,6.94,35.5-.54,9.32-4,16.73-9.69,20.62a21.26,21.26,0,0,1-6.12,2.94c-4.22.8-12.11-1.26-20.7-5.4-10.73-5.17-21.69-15.55-41.66-39.44-20.72-24.79-33.89-39.56-38.79-43.5-3.89-3.13-4.32-3.25-7.24-2-18.79,7.86-30.75,8.07-39.89.7-2.85-2.3-3.77-7.23-2.73-14.56,1-7.06.21-9.35-2.44-7.15-.85.7-2.06,3-2.7,5.16-.92,3.07-1.65,3.88-3.51,3.88-2.89,0-2.93-1.33-.26-8.47s7.54-11,15-11.21h0Zm-110.8,11.23,8.29,4.33C682.85,450.6,690.4,457,693,462c1.07,2,1.13,2.8.24,3.1-.66.22-8,5.11-16.41,10.87s-15.61,10.72-16.1,11-1.79-.61-2.91-2c-2.33-3-4.9-3.4-4.85-.83,0,1,4.27,8.73,9.46,17.25l9.42,15.5-5.47.72a54.74,54.74,0,0,0-11.71,3.34,77.34,77.34,0,0,1-8.24,3.05c-3.26.69-20-12.86-23-18.68-1.18-2.25-1.07-3.35.92-9,6.29-17.84,19.17-35.56,36-49.51Zm30,28.45c.89,0,1,5.57.12,8.74-.34,1.24-.89,2.25-1.24,2.23-1-.05-4.45-2.09-6.39-3.78-1.65-1.43-1.49-1.71,2.5-4.36a24.06,24.06,0,0,1,5-2.83Zm-13.89,9.6a3.94,3.94,0,0,1,2.35,1.08c8.42,6,10.35,6.44,16.67,3.8,2-.83,3.62-1.35,3.62-1.14s-1.29,3.25-2.87,6.76-4.75,12.15-7.06,19.19-5,14.81-6.1,17.25-2.1,4.45-2.32,4.45-1-1.41-1.71-3.13a27.67,27.67,0,0,0-3.75-6.05,59.62,59.62,0,0,1-5.71-9.62,149.24,149.24,0,0,0-7.86-13.7c-4-6.07-4.38-7.13-3-8,.87-.55,5.18-3.39,9.57-6.31C679.15,481.21,681,480,682.34,479.94Zm-14.08,43.41c7.76-.06,12.79,5.27,13.07,13.84.18,5.49-1.49,6.29-7.49,3.58-4.5-2-5.65-1.45-4.06,2,1,2.27.66,3-4.38,8.44a45.71,45.71,0,0,1-10.67,8.52c-10.59,5.28-20.35,1.27-21.5-8.84-.75-6.65,2.84-12.17,11.8-18.13,7.38-4.9,18.46-9.4,23.23-9.44ZM757,524l-2,3.42,3.26,1.34A95.72,95.72,0,0,0,770,531.94c10.51,2.25,37.17,2.65,40.74.61,2.4-1.38,3.08-4.21,1-4.21-13.42,0-32.89-1.11-42.5-2.52Zm64.39,71.82-4.74,3.82L818.8,603c4.16,6.35,2.85,9.42-6.72,15.78-13,8.63-25.28,12.64-44.6,14.54-6.05.6-12.5,1.32-14.32,1.62l-3.6.48-3.72,6.85c2.81-.53,2.95-.87,5.14-.89,9.21-.07,31.4-3.21,39.81-5.64A105.47,105.47,0,0,0,808,628.65c7.78-4.19,8.56-4.42,9.5-2.79,2.27,3.92,16,21.91,29,38,22.27,27.58,34.19,47.13,38.27,62.74,1.65,6.3,1.65,7.25.15,14.53-2.92,14.13-11.32,29.09-39.15,69.72l-14.59,21.3c-2.26,3.56-2.8,7.13-3.06,10.69-.46,4.56-2.35,8.24-7,10.27-5.2,2.64-7.55,3.24-12.49,3.21-7.27,0-11.55-1.45-18-5.87-8.42-5.78-8.09-10.64,1.39-20.78,7.27-7.77,11.71-16.44,15.5-30.31,1.43-5.22,4.35-14.9,6.49-21.5,5.48-16.93,7-23.52,7.68-33.14l.6-8.42,2.3,2.15c1.35,1.27,3,1.91,3.89,1.55,2.28-.87.59-3.64-6.33-10.34-9.9-9.57-49.72-42.49-62.5-51.65l-7.76-5.57,6.3-3.15c7.08-3.54,12.8-7.55,12.8-9,0-2-4.83-.73-17.29,4.6-7.13,3-14.18,5.8-15.68,6.1l-2.73.55-.86,9.14c.68-1.69,2.21-2.62,6.63-4.12l6.11-2.09,23.66,19.61c47.8,39.62,46.16,38.14,46.16,41.65,0,8.34-2.52,21.13-7,35.42-2.69,8.63-6,19.74-7.38,24.69-4.56,16.49-6.48,20.48-13.19,27.5-10.1,10.55-12.81,18.65-8.56,25.6l1.88,3.09-7.69,19.41c-4.23,10.67-8.77,22.44-10.07,26.15l-2.39,6.75H605l-1.42-2.75c-2.68-5.2-6.71-31.23-6.59-42.46.05-3.85.5-4.65,4.46-7.81,3.35-2.67,8.55-10.14,21.56-31,23.9-38.3,51.47-83.84,65-107.35l11.44-19.86L699.34,683l-3,4.44c-1.67,2.44-9,14.79-16.34,27.44-14.55,25.16-37.46,63.06-56.5,93.5-6.71,10.73-14.12,22.92-16.45,27.1-4.78,8.56-11.83,14.88-20.12,18-10,3.78-19.75,1.14-27.65-7.46-3.67-4-4.25-5.23-4.25-9.08s.44-4.77,2.9-6.52a11.74,11.74,0,0,1,4-2.07c2.69,0,36.93-75.11,63.61-139.5,12.18-29.4,14.5-36.48,14.5-44.15,0-7,.83-9.34,4.74-13.53l2.5-2.69,3.63,2.34c4.53,2.92,12.62,5.81,26,9.31l10.4,2.72s-1.29-2.92-2.79-7.45c-.07.13-1.17-.12-1.25-.13-2.1-.2-18.5-5-23.66-7-5.45-2-15.6-10.27-14.29-11.58.06-.07.63-1.76,0-2.06l-5-2.45a23.39,23.39,0,0,0-.73,2.84c-.41,1.63.1,3.69,1.48,6l2.09,3.55-2.93,3.1c-4.54,4.81-5.33,7.11-5.07,14.91.23,7.08.07,7.6-10.44,32.91-12.69,30.59-37.12,86.94-48.89,112.79-4.64,10.17-9.52,21.16-10.85,24.42l-2.43,5.93a10.2,10.2,0,0,1-7.23,5.59L552,828c-3,3.38-3.21,4.15-2.81,8.95.23,2.88,1.18,6.3,2.1,7.59s2.32,3.24,3.12,4.34c1.35,1.85.9,2.74-6,11.93-9.79,13-15.69,19.78-28.73,32.8l-10.79,10.77H472.29c-18.83,0-34.28-.16-36-.36l-.32.06-24.25.56-6.89-.26h-44l-6.31.19-20.58-.59c.16.22-17.36.37-39,.33-18.5,0-55.64.07-55.64.07h-32l-6.28-.05h0L83.78,905.57l-42.28.26s-5.42.33-5.42,2.5,5.42,2.5,5.42,2.5l35.5.53c19.52.29,244.4.61,499.72.71,416,.16,464.37,0,465.75-1.35,1.87-1.87,1.92-2.82.24-4.21-.83-.7-17.14-1.32-47-1.78L949.93,904l-9.43.31-22.5,0-47.75,0-9.75,0-2.62-4.76c-2.78-5-6.27-7.41-13.57-9.22-7.74-1.91-16.25-10.25-24.09-23.6l-3-5.11,5.23-2.17c7.81-3.24,10.79-6.83,11-13.32.11-2.91.27-6,.35-7s3.43-6.1,7.44-11.5c33.28-44.81,50.63-76.77,50.69-93.41,0-5.68-3.57-18.25-7.79-27.19-5.13-10.89-17.61-29.3-30.3-44.72-16.09-19.53-32.89-41-32.89-42.06,0-.51,2.77-2.46,3.91-4.31,3-4.78,2.7-10.25-.73-15.67Zm-34,259.76,5.08,3c4,2.35,6.61,3.12,12.09,3.48l7,.48,1.62,3.79,1.62,3.79-3.6,2.34c-4.54,3-8.17,8.28-8.17,12,0,4,2.18,3.61,5.09-.89a19.62,19.62,0,0,1,6.26-5.75l3.84-2,1.65,2.5a84.71,84.71,0,0,0,6.55,7.75c3.14,3.35,4.34,5.25,3.33,5.25s-4.6,1.57-8.29,3.5a56.66,56.66,0,0,1-7.32,3.44c-.33,0-4.38-1.17-9-2.53-9.46-2.79-21.39-8.1-25.09-11.15l-2.47-2,3.85-9.86c2.11-5.42,4.32-11.49,4.89-13.48ZM559.77,856a25,25,0,0,1,6.23,2.24c7.39,3.5,14.09,4,21,1.57,2.34-.83,4.35-1.5,4.48-1.5s.54,5.74.92,12.75.8,14.1.9,15.75c.19,2.89,0,3.06-6.3,4.68-7.27,1.89-15,2.32-15,.86,0-.53-1.35-2.5-3-4.37-5.53-6.3-12.87-6.89-27.26-2.22-3.71,1.21-6.75,2-6.75,1.78a48.09,48.09,0,0,1,4.58-5.53c4.7-5.23,19.07-24.15,19.65-25.87a.22.22,0,0,1,.19-.13A1.09,1.09,0,0,1,559.77,856Zm1.58,12.78a7.53,7.53,0,0,0-3.06.71c-1.53.74-2.93,2.06-3.1,3-.24,1.26.8,1.71,4.82,2.1,3.43.33,5.84,1.2,7.27,2.63,2.86,2.86,3.69,2.7,3.69-.7C571,872.23,566,868.67,561.35,868.8Zm-5.49,20.53c7.27,0,9.31,2.17,11.55,12.25l.6,2.75H519.59l3.44-2.58c8.56-6.41,24.45-12.42,32.83-12.42Zm219.65.45a6.67,6.67,0,0,1,3.37,1.48c4.55,3.24,15,7.76,24.33,10.52l8.27,2.44-20.75.06c-11.41,0-20.75-.33-20.75-.79,0-1.57,4-12.6,4.94-13.5a.8.8,0,0,1,.59-.21ZM594,896c.79.08,1.77,1.65,2.49,4l1.27,4.25H574v-2.5c0-2.15.46-2.51,3.25-2.51a50.77,50.77,0,0,0,9.25-1.55c3.3-.84,6.62-1.61,7.37-1.73H594Zm246.36.45a18.32,18.32,0,0,1,6.3.91c3,1.13,7.32,4.74,7.32,6.1,0,.46-8,.83-17.66.83-17.41,0-17.63,0-15.89-1.94C823.5,899,833,896.48,840.36,896.49Z" class="cls-8" id="path2605"></path></svg>