<?xml version="1.0" standalone="no"?><!DOCTYPE svg PUBLIC "-//W3C//DTD SVG 1.1//EN" "http://www.w3.org/Graphics/SVG/1.1/DTD/svg11.dtd"><svg t="1681179958521" class="icon" viewBox="0 0 1024 1024" version="1.1" xmlns="http://www.w3.org/2000/svg" p-id="1028" xmlns:xlink="http://www.w3.org/1999/xlink" width="200" height="200"><path d="M465.066667 433.777778m14.222222 0l160.711111 0q14.222222 0 14.222222 14.222222l0 0.853333q0 14.222222-14.222222 14.222223l-160.711111 0q-14.222222 0-14.222222-14.222223l0-0.853333q0-14.222222 14.222222-14.222222Z" fill="#F7B531" p-id="1029"></path><path d="M415.288889 376.888889m8.533333 0l257.422222 0q8.533333 0 8.533334 8.533333l0 0.995556q0 8.533333-8.533334 8.533333l-257.422222 0q-8.533333 0-8.533333-8.533333l0-0.995556q0-8.533333 8.533333-8.533333Z" fill="#F7DF4A" p-id="1030"></path><path d="M502.044444 331.377778m4.266667 0l156.444445 0q4.266667 0 4.266666 4.266666l0 1.137778q0 4.266667-4.266666 4.266667l-156.444445 0q-4.266667 0-4.266667-4.266667l0-1.137778q0-4.266667 4.266667-4.266666Z" fill="#F7DF4A" p-id="1031"></path><path d="M388.266667 631.466667m18.488889 0l389.688888 0q18.488889 0 18.488889 18.488889l0 0.711111q0 18.488889-18.488889 18.488889l-389.688888 0q-18.488889 0-18.488889-18.488889l0-0.711111q0-18.488889 18.488889-18.488889Z" fill="#F7B531" p-id="1032"></path><path d="M206.222222 631.466667m18.488889 0l100.977778 0q18.488889 0 18.488889 18.488889l0 0.711111q0 18.488889-18.488889 18.488889l-100.977778 0q-18.488889 0-18.488889-18.488889l0-0.711111q0-18.488889 18.488889-18.488889Z" fill="#F7B531" p-id="1033"></path><path d="M790.755556 519.111111H482.133333l-128-166.4a9.955556 9.955556 0 0 0-17.066666 0l-132.266667 172.088889c0 1.422222-1.422222 2.844444-1.422222 4.266667v7.111111c0 9.955556 5.688889 18.488889 14.222222 18.488889h573.155556c8.533333 0 14.222222-8.533333 14.222222-18.488889s-5.688889-17.066667-14.222222-17.066667z" fill="#F7B531" p-id="1034"></path><path d="M704 415.288889a17.066667 17.066667 0 0 0-17.066667 17.066667 17.066667 17.066667 0 1 0 34.133334 0 17.066667 17.066667 0 0 0-17.066667-17.066667z" fill="#F7DF4A" p-id="1035"></path><path d="M765.155556 415.288889a8.533333 8.533333 0 1 0 17.066666 0 8.533333 8.533333 0 1 0-17.066666 0Z" fill="#F7DF4A" p-id="1036"></path><path d="M725.333333 349.866667a8.533333 8.533333 0 0 0-8.533333 8.533333 8.533333 8.533333 0 0 0 8.533333 7.111111 7.111111 7.111111 0 0 0 7.111111-7.111111 8.533333 8.533333 0 0 0-7.111111-8.533333zM738.133333 459.377778a4.266667 4.266667 0 0 0 0 8.533333c2.844444 0 5.688889-1.422222 5.688889-4.266667s-2.844444-4.266667-5.688889-4.266666z" fill="#F7DF4A" p-id="1037"></path><path d="M769.422222 344.177778a12.8 12.8 0 1 0 25.6 0 12.8 12.8 0 1 0-25.6 0Z" fill="#F7DF4A" p-id="1038"></path><path d="M830.577778 369.777778a8.533333 8.533333 0 0 0-8.533334 8.533333 8.533333 8.533333 0 1 0 17.066667 0 8.533333 8.533333 0 0 0-8.533333-8.533333z" fill="#F7DF4A" p-id="1039"></path><path d="M792.177778 449.422222a11.377778 11.377778 0 1 0 22.755555 0 11.377778 11.377778 0 1 0-22.755555 0Z" fill="#F7DF4A" p-id="1040"></path></svg>