<?xml version="1.0" standalone="no"?><!DOCTYPE svg PUBLIC "-//W3C//DTD SVG 1.1//EN" "http://www.w3.org/Graphics/SVG/1.1/DTD/svg11.dtd"><svg t="1681096088450" class="icon" viewBox="0 0 1024 1024" version="1.1" xmlns="http://www.w3.org/2000/svg" p-id="1912" xmlns:xlink="http://www.w3.org/1999/xlink" width="200" height="200"><path d="M243.2 702.577778m0-9.955556l0-4.266666q0-9.955556 9.955556-9.955556l140.657777 0q9.955556 0 9.955556 9.955556l0 4.266666q0 9.955556-9.955556 9.955556l-140.657777 0q-9.955556 0-9.955556-9.955556Z" fill="#A1C6E6" p-id="1913"></path><path d="M576 759.466667m0-9.955556l0-4.266667q0-9.955556 9.955556-9.955555l113.635555 0q9.955556 0 9.955556 9.955555l0 4.266667q0 9.955556-9.955556 9.955556l-113.635555 0q-9.955556 0-9.955556-9.955556Z" fill="#C3D6E6" p-id="1914"></path><path d="M742.4 759.466667m0-9.955556l0-4.266667q0-9.955556 9.955556-9.955555l22.044444 0q9.955556 0 9.955556 9.955555l0 4.266667q0 9.955556-9.955556 9.955556l-22.044444 0q-9.955556 0-9.955556-9.955556Z" fill="#C3D6E6" p-id="1915"></path><path d="M443.733333 702.577778m0-9.955556l0-4.266666q0-9.955556 9.955556-9.955556l321.706667 0q9.955556 0 9.955555 9.955556l0 4.266666q0 9.955556-9.955555 9.955556l-321.706667 0q-9.955556 0-9.955556-9.955556Z" fill="#A1C6E6" p-id="1916"></path><path d="M243.2 759.466667m0-9.955556l0-4.266667q0-9.955556 9.955556-9.955555l268.088888 0q9.955556 0 9.955556 9.955555l0 4.266667q0 9.955556-9.955556 9.955556l-268.088888 0q-9.955556 0-9.955556-9.955556Z" fill="#C3D6E6" p-id="1917"></path><path d="M672.711111 607.288889c-100.977778 0-182.044444-73.955556-182.044444-166.4 0-66.844444-61.155556-119.466667-135.111111-119.466667s-135.111111 52.622222-135.111112 118.044445 61.155556 119.466667 135.111112 119.466666a143.644444 143.644444 0 0 0 92.444444-32.711111 24.177778 24.177778 0 0 1 32.711111 4.266667 25.6 25.6 0 0 1-4.266667 34.133333 189.155556 189.155556 0 0 1-120.888888 42.666667c-99.555556 0-180.622222-75.377778-180.622223-167.822222S256 273.066667 355.555556 273.066667s182.044444 75.377778 182.044444 166.4c0 66.844444 59.733333 120.888889 135.111111 120.888889s133.688889-54.044444 133.688889-119.466667-59.733333-118.044444-133.688889-118.044445a145.066667 145.066667 0 0 0-96.711111 35.555556 22.755556 22.755556 0 0 1-32.711111-2.844444 24.177778 24.177778 0 0 1 2.844444-34.133334 190.577778 190.577778 0 0 1 126.577778-46.933333c99.555556 0 180.622222 75.377778 180.622222 166.4s-81.066667 166.4-180.622222 166.4z" fill="#CFDBE6" p-id="1918"></path><path d="M648.533333 368.355556m-17.066666 0a17.066667 17.066667 0 1 0 34.133333 0 17.066667 17.066667 0 1 0-34.133333 0Z" fill="#A1C6E6" p-id="1919"></path><path d="M713.955556 384a9.955556 9.955556 0 0 0-12.8-4.266667 8.533333 8.533333 0 0 0-4.266667 11.377778 8.533333 8.533333 0 0 0 11.377778 5.688889 9.955556 9.955556 0 0 0 5.688889-12.8zM563.2 445.155556a9.955556 9.955556 0 0 0-4.266667 12.8 8.533333 8.533333 0 0 0 11.377778 4.266666 9.955556 9.955556 0 0 0 4.266667-11.377778 8.533333 8.533333 0 0 0-11.377778-5.688888zM608.711111 418.133333a7.111111 7.111111 0 0 0-2.844444 8.533334 5.688889 5.688889 0 0 0 8.533333 2.844444 5.688889 5.688889 0 0 0-5.688889-11.377778zM573.155556 385.422222a9.955556 9.955556 0 0 0-5.688889 14.222222 11.377778 11.377778 0 0 0 15.644444 5.688889 9.955556 9.955556 0 0 0 5.688889-14.222222 11.377778 11.377778 0 0 0-15.644444-5.688889zM662.755556 416.711111a12.8 12.8 0 0 0-7.111112 17.066667 14.222222 14.222222 0 1 0 7.111112-17.066667z" fill="#A1C6E6" p-id="1920"></path><path d="M416.711111 381.155556a8.533333 8.533333 0 0 0-5.688889 11.377777 9.955556 9.955556 0 0 0 12.8 5.688889 9.955556 9.955556 0 0 0 4.266667-12.8 8.533333 8.533333 0 0 0-11.377778-4.266666z" fill="#CFDBE6" p-id="1921"></path><path d="M452.809449 431.76365m-0.506081 8.518313a8.533333 8.533333 0 1 0 1.012162-17.036627 8.533333 8.533333 0 1 0-1.012162 17.036627Z" fill="#CFDBE6" p-id="1922"></path><path d="M375.466667 433.777778a9.955556 9.955556 0 0 0-4.266667 12.8 8.533333 8.533333 0 1 0 4.266667-12.8zM335.644444 402.488889a7.111111 7.111111 0 0 0-2.844444 8.533333 5.688889 5.688889 0 0 0 7.111111 2.844445 5.688889 5.688889 0 0 0 2.844445-8.533334 5.688889 5.688889 0 0 0-7.111112-2.844444z" fill="#CFDBE6" p-id="1923"></path></svg>