<svg t="1679034712176" class="icon" viewBox="0 0 1024 1024" version="1.1" xmlns="http://www.w3.org/2000/svg" p-id="10256" data-spm-anchor-id="a313x.7781069.0.i25" width="200" height="200"><path d="M756.736 729.088m-65.194667 0a65.194667 65.194667 0 1 0 130.389334 0 65.194667 65.194667 0 1 0-130.389334 0Z" fill="#FEA889" p-id="10257" data-spm-anchor-id="a313x.7781069.0.i23" class=""></path><path d="M544.426667 534.528m-65.194667 0a65.194667 65.194667 0 1 0 130.389333 0 65.194667 65.194667 0 1 0-130.389333 0Z" fill="#FEA889" p-id="10258"></path><path d="M282.624 608.938667m-65.194667 0a65.194667 65.194667 0 1 0 130.389334 0 65.194667 65.194667 0 1 0-130.389334 0Z" fill="#FEA889" p-id="10259"></path><path d="M498.688 251.562667m-65.194667 0a65.194667 65.194667 0 1 0 130.389334 0 65.194667 65.194667 0 1 0-130.389334 0Z" fill="#FEA889" p-id="10260"></path><path d="M548.181333 869.034667c-80.554667 0-144.042667-147.114667-144.042666-334.848 0-187.733333 63.146667-334.848 144.042666-334.848s144.042667 147.114667 144.042667 334.848c-0.341333 187.733333-63.488 334.848-144.042667 334.848z m0-649.557334c-67.242667 0-123.904 144.042667-123.904 314.709334s56.661333 314.709333 123.904 314.709333 123.904-144.042667 123.904-314.709333c0-170.325333-57.002667-314.709333-123.904-314.709334z" p-id="10261"></path><path d="M548.181333 872.448c-82.602667 0-147.456-148.48-147.456-338.261333 0-189.44 64.853333-338.261333 147.456-338.261334s147.456 148.48 147.456 338.261334c-0.341333 189.781333-65.194667 338.261333-147.456 338.261333z m0-669.354667c-78.848 0-140.629333 145.408-140.629333 331.434667 0 185.685333 61.781333 331.434667 140.629333 331.434667s140.629333-145.408 140.629334-331.434667c-0.341333-186.026667-62.122667-331.434667-140.629334-331.434667z m0 649.557334c-34.133333 0-66.218667-33.792-90.453333-95.573334-23.893333-60.757333-36.864-139.605333-36.864-222.549333 0-82.944 13.312-162.133333 36.864-222.549333 24.234667-61.781333 56.32-95.573333 90.453333-95.573334s66.218667 33.792 90.453334 95.573334c23.893333 60.757333 36.864 139.605333 36.864 222.549333 0 82.944-13.312 162.133333-36.864 222.549333-24.576 61.781333-56.661333 95.573333-90.453334 95.573334z m0-629.76c-65.536 0-120.490667 142.677333-120.490666 311.296 0 168.96 55.296 311.296 120.490666 311.296s120.490667-142.677333 120.490667-311.296c0-168.618667-55.296-311.296-120.490667-311.296z" p-id="10262"></path><path d="M548.181333 872.448c-82.602667 0-147.456-148.48-147.456-338.261333 0-189.44 64.853333-338.261333 147.456-338.261334 82.602667 0 147.456 148.48 147.456 338.261334-0.341333 189.781333-64.853333 338.261333-147.456 338.261333z m0-669.354667c-78.848 0-140.629333 145.408-140.629333 331.434667 0 185.685333 61.781333 331.434667 140.629333 331.434667s140.629333-145.408 140.629334-331.434667c-0.341333-186.026667-62.122667-331.434667-140.629334-331.434667z m0 649.557334c-34.133333 0-66.218667-33.792-90.453333-95.573334-23.893333-60.757333-36.864-139.605333-36.864-222.549333s13.312-162.133333 36.864-222.549333c24.234667-61.781333 56.32-95.573333 90.453333-95.573334s66.218667 33.792 90.453334 95.573334c23.893333 60.757333 36.864 139.605333 36.864 222.549333S662.186667 696.32 638.293333 757.077333c-24.234667 61.781333-56.32 95.573333-90.112 95.573334z m0-629.76c-65.194667 0-120.490667 142.677333-120.490666 311.296s55.296 311.296 120.490666 311.296c65.536 0 120.490667-142.677333 120.490667-311.296s-55.296-311.296-120.490667-311.296z" p-id="10263"></path><path d="M548.181333 875.861333c-84.650667 0-150.869333-150.186667-150.869333-341.674666s66.218667-341.674667 150.869333-341.674667 150.869333 150.186667 150.869334 341.674667-66.56 341.674667-150.869334 341.674666z m-144.042666-341.333333c0 187.733333 63.146667 334.848 144.042666 334.848 80.554667 0 144.042667-147.114667 144.042667-334.848 0 187.733333-63.146667 334.848-144.042667 334.848-80.896-0.341333-144.042667-147.456-144.042666-334.848z m144.042666-328.021333c-76.8 0-137.216 144.042667-137.216 328.021333 0 183.978667 60.074667 328.021333 137.216 328.021333s137.216-144.042667 137.216-328.021333c-0.341333-183.978667-60.416-328.021333-137.216-328.021333z m0 649.557333c-35.498667 0-68.608-34.816-93.525333-97.621333-23.893333-61.098667-37.205333-140.629333-37.205333-223.914667 0-83.285333 13.312-162.816 37.205333-223.914667 24.917333-63.146667 58.026667-97.621333 93.525333-97.621333 35.498667 0 68.608 34.816 93.525334 97.621333 23.893333 61.098667 37.205333 140.629333 37.205333 223.914667 0 83.285333-13.312 162.816-37.205333 223.914667-24.917333 62.805333-58.026667 97.621333-93.525334 97.621333z m0-629.76c-29.696 0-59.392 32.768-81.578666 90.112-22.869333 59.050667-35.498667 136.533333-35.498667 217.770667s12.629333 158.72 35.498667 217.770666c22.186667 57.344 51.882667 90.112 81.578666 90.112s59.392-32.768 81.578667-90.112c22.869333-59.050667 35.498667-136.533333 35.498667-217.770666s-12.629333-158.72-35.498667-217.770667C607.573333 259.413333 577.536 226.304 548.181333 226.304z m123.904 308.224z m-248.149333 0z m248.149333-0.341333z m-248.149333 0z" p-id="10264" data-spm-anchor-id="a313x.7781069.0.i22" class="" fill="#e98f36"></path><path d="M737.621333 743.765333c-69.973333 0-164.864-29.354667-261.461333-84.992-162.474667-93.866667-258.389333-222.208-217.770667-291.84 40.277333-69.973333 199.338667-51.2 361.813334 42.666667s258.389333 222.208 217.770666 291.84c-16.384 28.672-52.565333 42.325333-100.352 42.325333zM486.058667 641.706667c147.797333 85.333333 301.056 108.202667 334.506666 50.176 33.450667-58.368-62.805333-179.541333-210.602666-264.874667-147.797333-85.333333-301.056-108.202667-334.506667-50.176-33.792 58.368 62.805333 179.541333 210.602667 264.874667z" p-id="10265" data-spm-anchor-id="a313x.7781069.0.i24" class="" fill="#e6b245"></path><path d="M737.621333 747.178667c-73.386667 0-169.301333-31.061333-263.168-85.333334C310.272 567.296 214.016 436.906667 255.317333 365.226667c41.301333-71.68 202.410667-53.248 366.592 41.642666 164.181333 94.890667 260.437333 224.938667 219.136 296.618667-16.725333 28.672-52.565333 43.690667-103.424 43.690667zM358.4 328.021333c-46.421333 0-81.578667 13.312-97.28 40.618667-39.253333 68.266667 55.637333 194.56 216.746667 287.402667 92.842667 53.589333 187.733333 84.309333 259.754666 84.309333 48.469333 0 82.261333-13.994667 97.28-40.618667 39.253333-68.266667-55.637333-194.56-216.746666-287.402666-95.914667-54.954667-190.805333-84.309333-259.754667-84.309334z m380.928 399.36c-13.312 0-27.989333-1.024-43.690667-3.413333-64.512-9.557333-139.605333-37.888-211.285333-79.189333-71.68-41.642667-133.802667-92.501333-174.421333-143.36-41.301333-51.882667-54.613333-96.597333-37.546667-125.952 17.066667-29.354667 62.464-40.277333 128-30.378667 64.512 9.557333 139.605333 37.888 211.285333 79.189333 71.68 41.642667 133.802667 92.501333 174.421334 143.36 41.301333 51.882667 54.613333 96.597333 37.546666 125.952-12.970667 22.186667-42.325333 33.792-84.309333 33.792z m-251.562667-88.405333c146.090667 84.309333 297.301333 107.861333 330.069334 51.2 32.768-56.661333-63.146667-175.786667-209.578667-260.096-70.997333-40.96-145.408-68.949333-208.896-78.506667-61.781333-9.216-105.813333 0.682667-121.173333 27.306667-32.426667 56.32 63.488 175.445333 209.578666 260.096z" p-id="10266"></path><path d="M737.621333 747.178667c-73.386667 0-169.301333-31.061333-263.168-85.333334C310.272 567.296 214.016 436.906667 255.317333 365.226667c41.301333-71.68 202.410667-53.248 366.592 41.642666 164.181333 94.890667 260.437333 224.938667 219.136 296.618667-16.725333 28.672-52.565333 43.690667-103.424 43.690667zM358.4 328.021333c-46.421333 0-81.578667 13.312-97.28 40.618667-39.253333 68.266667 55.637333 194.56 216.746667 287.402667 92.842667 53.589333 187.733333 84.309333 259.754666 84.309333 48.469333 0 82.261333-13.994667 97.28-40.618667 39.253333-68.266667-55.637333-194.56-216.746666-287.402666-95.914667-54.954667-190.805333-84.309333-259.754667-84.309334z m380.928 399.36c-13.312 0-27.989333-1.024-43.690667-3.413333-64.512-9.557333-139.605333-37.888-211.285333-79.189333-71.68-41.642667-133.802667-92.501333-174.421333-143.36-41.301333-51.882667-54.613333-96.597333-37.546667-125.952 17.066667-29.354667 62.464-40.277333 128-30.378667 64.512 9.557333 139.605333 37.888 211.285333 79.189333 71.68 41.642667 133.802667 92.501333 174.421334 143.36 41.301333 51.882667 54.613333 96.597333 37.546666 125.952-12.970667 22.186667-42.325333 33.792-84.309333 33.792z m-251.562667-88.405333c146.090667 84.309333 297.301333 107.861333 330.069334 51.2 32.768-56.661333-63.146667-175.786667-209.578667-260.096-70.997333-40.96-145.408-68.949333-208.896-78.506667-61.781333-9.216-105.813333 0.682667-121.173333 27.306667-32.426667 56.32 63.488 175.445333 209.578666 260.096z" p-id="10267"></path><path d="M737.621333 750.592c-73.728 0-170.325333-31.402667-264.874666-85.674667-165.888-95.914667-262.826667-228.010667-220.501334-301.397333 42.325333-73.045333 205.141333-55.637333 371.029334 40.277333s262.826667 228.010667 220.501333 301.397334c-17.066667 29.696-53.930667 45.397333-106.154667 45.397333z m0-6.826667z m101.717334-44.714666c-0.341333 1.024-1.024 2.048-1.365334 2.730666-15.701333 27.306667-49.834667 41.984-98.986666 42.325334 48.810667-0.341333 83.285333-15.018667 98.986666-42.325334 0.341333-1.024 1.024-2.048 1.365334-2.730666z m-104.789334 44.714666h1.024-1.024z m-1.365333 0h0.682667-0.682667z m-1.024 0h0.682667-0.682667z m-37.546667-3.072z m-0.682666 0s0.341333 0 0 0c0.341333 0 0 0 0 0z m-0.682667 0h0z m-0.341333-0.341333h0.341333c0 0.341333 0 0.341333-0.341333 0z m-0.341334 0z m-230.058666-89.429333c4.437333 2.730667 9.216 5.461333 13.653333 8.192 75.093333 43.349333 151.552 72.021333 216.064 81.237333-64.853333-9.557333-140.970667-37.888-216.064-81.237333-4.778667-2.730667-9.216-5.461333-13.653333-8.192zM358.4 331.434667c-47.104 0-79.530667 13.653333-94.208 38.912-18.432 31.744-6.485333 78.165333 33.109333 130.730666 40.277333 53.248 105.130667 107.178667 182.272 151.893334 92.501333 53.248 186.368 83.968 258.048 83.968 47.104 0 79.872-13.312 94.549334-38.912 18.432-31.744 6.485333-78.165333-33.109334-130.730667-40.277333-53.248-105.130667-107.178667-182.272-151.893333-92.842667-53.248-187.050667-83.968-258.389333-83.968z m251.904 72.704c3.413333 1.706667 6.485333 3.754667 9.898667 5.461333 4.778667 2.730667 9.557333 5.802667 14.336 8.533333-4.778667-2.730667-9.557333-5.802667-14.336-8.533333-3.413333-1.706667-6.826667-3.413333-9.898667-5.461333zM259.413333 364.885333c-0.341333 0.682667-0.682667 1.365333-1.365333 2.048-0.682667 1.024-1.024 2.048-1.706667 2.730667 0.341333-1.024 1.024-2.048 1.706667-2.730667 0.341333-0.682667 1.024-1.365333 1.365333-2.048z m479.914667 365.909334c-13.653333 0-28.330667-1.365333-44.032-3.413334-64.853333-9.557333-140.288-37.888-212.650667-79.530666-72.362667-41.642667-134.485333-92.842667-175.445333-144.384-42.325333-52.906667-55.637333-98.986667-37.888-130.048 17.749333-30.72 64.512-42.325333 131.413333-32.085334 64.853333 9.557333 140.288 37.888 212.650667 79.530667 72.362667 41.642667 134.485333 92.842667 175.445333 144.384 42.325333 52.906667 55.637333 98.986667 37.888 130.048-13.653333 23.210667-43.690667 35.498667-87.381333 35.498667z m-249.856-94.890667c70.314667 40.618667 143.701333 68.266667 206.506667 78.165333 60.757333 9.557333 104.106667 0 119.125333-25.6 14.677333-25.6 1.365333-67.925333-37.205333-115.712-39.936-49.493333-100.352-98.986667-170.666667-139.605333-70.656-40.96-144.384-68.608-207.872-78.165333-60.074667-8.874667-103.082667 0.341333-117.76 25.6-14.677333 25.6-1.365333 67.925333 37.205333 115.712 39.594667 49.493333 100.352 98.986667 170.666667 139.605333z m332.117333 54.272c-0.341333 0.682667-0.682667 1.024-1.024 1.706667-0.341333 0.682667-0.682667 1.024-1.024 1.706666 0.341333-0.682667 0.682667-1.024 1.024-1.706666 0.341333-0.682667 0.682667-1.365333 1.024-1.706667zM474.453333 634.88c3.754667 2.389333 7.509333 4.437333 11.605334 6.826667 4.437333 2.389333 8.874667 5.12 12.970666 7.509333-4.437333-2.389333-8.874667-4.778667-12.970666-7.509333-3.754667-2.048-7.850667-4.437333-11.605334-6.826667z m-116.736-290.133333c12.970667 0 26.965333 1.024 42.325334 3.413333 64.170667 9.557333 138.581333 37.546667 210.261333 78.848 3.754667 2.048 7.509333 4.437333 10.922667 6.485333-3.754667-2.048-7.168-4.437333-10.922667-6.485333-71.338667-41.301333-146.090667-69.290667-210.261333-78.848-64.170667-9.557333-108.202667 0.682667-124.586667 28.672-0.341333 0.682667-0.682667 1.024-1.024 1.706667 0.341333-0.682667 0.682667-1.024 1.024-1.706667 11.946667-20.821333 41.301333-32.085333 82.261333-32.085333z" p-id="10268" data-spm-anchor-id="a313x.7781069.0.i26" class="" fill="#e6b245"></path><path d="M358.4 743.765333c-47.786667 0-83.968-13.653333-100.352-42.325333-40.277333-69.973333 55.296-197.973333 217.770667-291.84 162.474667-93.866667 321.536-112.64 361.813333-42.666667 40.277333 69.973333-55.296 197.973333-217.770667 291.84-96.256 55.978667-191.488 84.992-261.461333 84.992zM738.986667 344.746667c-66.218667 0-160.426667 29.013333-252.928 82.261333-147.797333 85.333333-244.394667 206.506667-210.602667 264.874667 33.450667 58.368 186.709333 35.157333 334.506667-50.176s244.394667-206.506667 210.602666-264.874667c-12.629333-21.845333-41.984-32.085333-81.578666-32.085333z" p-id="10269"></path><path d="M358.4 747.178667c-50.858667 0-86.698667-15.018667-103.424-44.032-41.301333-71.68 54.954667-201.728 219.136-296.618667C638.293333 311.637333 799.402667 293.546667 840.704 364.885333c41.301333 71.68-54.954667 201.728-219.136 296.618667-93.866667 54.613333-189.781333 85.674667-263.168 85.674667zM737.621333 328.021333c-68.949333 0-163.84 29.354667-259.754666 84.650667-160.768 92.842667-256 219.136-216.746667 287.402667C276.48 726.698667 309.930667 740.693333 358.4 740.693333c72.021333 0 166.912-30.72 259.754667-84.309333 160.768-92.842667 256-219.136 216.746666-287.402667-15.701333-27.648-50.858667-40.96-97.28-40.96z m-380.928 399.36c-41.984 0-71.338667-11.605333-84.309333-34.133333-17.066667-29.354667-3.754667-74.069333 37.546667-125.952 40.618667-50.858667 102.4-102.058667 174.421333-143.36 89.770667-51.882667 185.002667-82.602667 254.634667-82.602667 42.666667 0 71.68 11.605333 84.650666 33.792 17.066667 29.354667 3.754667 74.069333-37.546666 125.952-40.618667 50.858667-102.4 102.058667-174.421334 143.36-71.68 41.642667-146.773333 69.632-211.285333 79.189334-15.701333 2.730667-30.378667 3.754667-43.690667 3.754666z m382.293334-379.221333c-68.608 0-162.474667 30.72-251.221334 81.92-146.090667 84.309333-242.005333 203.434667-209.237333 260.096 32.768 56.661333 183.637333 33.109333 330.069333-51.2 146.090667-84.309333 242.005333-203.434667 209.578667-260.096-11.946667-20.138667-39.253333-30.72-79.189333-30.72z" p-id="10270"></path><path d="M358.4 747.178667c-50.858667 0-86.698667-15.018667-103.424-44.032-41.301333-71.68 54.954667-201.728 219.136-296.618667C638.293333 311.637333 799.402667 293.546667 840.704 364.885333c41.301333 71.68-54.954667 201.728-219.136 296.618667-93.866667 54.613333-189.781333 85.674667-263.168 85.674667zM737.621333 328.021333c-68.949333 0-163.84 29.354667-259.754666 84.650667-160.768 92.842667-256 219.136-216.746667 287.402667C276.48 726.698667 309.930667 740.693333 358.4 740.693333c72.021333 0 166.912-30.72 259.754667-84.309333 160.768-92.842667 256-219.136 216.746666-287.402667-15.701333-27.648-50.858667-40.96-97.28-40.96z m-380.928 399.36c-41.984 0-71.338667-11.605333-84.309333-34.133333-17.066667-29.354667-3.754667-74.069333 37.546667-125.952 40.618667-50.858667 102.4-102.058667 174.421333-143.36 89.770667-51.882667 185.002667-82.602667 254.634667-82.602667 42.666667 0 71.68 11.605333 84.650666 33.792 17.066667 29.354667 3.754667 74.069333-37.546666 125.952-40.618667 50.858667-102.4 102.058667-174.421334 143.36-71.68 41.642667-146.773333 69.632-211.285333 79.189334-15.701333 2.730667-30.378667 3.754667-43.690667 3.754666z m382.293334-379.221333c-68.608 0-162.474667 30.72-251.221334 81.92-146.090667 84.309333-242.005333 203.434667-209.237333 260.096 32.768 56.661333 183.637333 33.109333 330.069333-51.2s242.005333-203.434667 209.578667-260.096c-11.946667-20.138667-39.253333-30.72-79.189333-30.72z" p-id="10271"></path><path d="M358.4 750.592c-52.224 0-89.088-15.701333-106.154667-45.738667-42.325333-73.045333 54.613333-205.482667 220.501334-301.397333 165.888-95.914667 329.045333-113.322667 371.029333-40.277333 20.821333 35.84 9.216 86.698667-32.768 143.36-41.301333 55.637333-107.861333 111.957333-187.733333 158.037333-94.549333 54.954667-190.805333 86.016-264.874667 86.016z m128.682667-347.136c-3.754667 2.048-7.509333 4.096-10.922667 6.144-162.474667 93.866667-258.389333 222.208-217.770667 291.84 16.042667 27.648 50.517333 42.325333 100.352 42.325333-49.834667 0-84.309333-14.677333-100.352-42.325333-40.277333-69.973333 55.296-197.973333 217.770667-291.84 3.754667-2.048 7.168-4.096 10.922667-6.144z m-125.610667 340.309333h-1.024 1.024z m1.365333 0h-0.682666 0.682666z m1.024 0h-0.682666 0.682666z m37.546667-3.072h-0.341333 0.341333z m0.682667 0s-0.341333 0 0 0c-0.341333 0 0 0 0 0z m1.024-0.341333h-1.024c0.341333 0.341333 0.682667 0.341333 1.024 0z m0.682666 0h-0.341333 0.341333z m230.4-89.770667c-4.778667 2.730667-9.557333 5.802667-14.336 8.533334-75.093333 43.349333-151.552 72.021333-216.064 81.237333 64.853333-9.557333 140.970667-37.888 216.064-81.237333 5.12-3.072 9.898667-5.802667 14.336-8.533334z m103.424-319.146666c-71.338667 0-165.546667 30.72-258.048 84.309333-159.061333 91.818667-253.952 216.064-215.381333 282.624 14.677333 25.258667 47.445333 38.912 94.549333 38.912 71.68 0 165.546667-30.72 258.048-83.968 159.061333-91.818667 253.952-216.064 215.381334-282.624-15.018667-25.6-47.445333-39.253333-94.549334-39.253333z m98.986667 33.450666c0.341333 0.682667 0.682667 1.365333 1.365333 2.048 0.341333 1.024 1.024 1.706667 1.365334 2.730667-0.341333-1.024-1.024-1.706667-1.365334-2.730667-0.341333-0.682667-1.024-1.365333-1.365333-2.048zM356.693333 730.794667c-43.690667 0-73.728-12.288-87.381333-35.84-17.749333-30.72-4.437333-76.8 37.888-130.048 40.96-51.2 103.082667-102.4 175.445333-144.384 90.112-52.224 186.026667-83.285333 256.341334-83.285334 43.690667 0 74.069333 12.288 87.722666 35.498667 17.749333 30.72 4.437333 76.8-37.888 130.048-40.96 51.2-103.082667 102.4-175.445333 144.384-72.362667 41.642667-147.797333 69.973333-212.650667 79.530667-15.701333 3.072-30.378667 4.096-44.032 4.096z m382.293334-379.221334c-67.925333 0-161.450667 30.378667-249.514667 81.237334-70.314667 40.618667-131.072 90.112-170.666667 139.605333-38.570667 47.786667-52.224 90.112-37.205333 115.712s58.026667 35.157333 118.784 25.6c62.805333-9.898667 136.192-37.546667 206.506667-78.165333s131.072-90.112 170.666666-139.605334c38.570667-47.786667 52.224-90.112 37.205334-115.712-10.922667-18.773333-37.205333-28.672-75.776-28.672zM274.432 690.176c0.341333 0.682667 0.682667 1.024 1.024 1.706667 0.341333 0.341333 0.682667 1.024 1.024 1.365333-0.341333-0.341333-0.682667-1.024-1.024-1.365333-0.341333-0.682667-0.682667-1.365333-1.024-1.706667z m345.088-53.930667c-3.072 1.706667-6.144 3.754667-9.216 5.461334-4.096 2.389333-8.192 4.437333-11.946667 6.826666 4.096-2.389333 8.192-4.437333 11.946667-6.826666 2.730667-1.706667 6.144-3.413333 9.216-5.461334z m-28.330667-259.413333c-34.474667 13.312-70.314667 30.037333-105.130666 50.176-3.754667 2.048-7.509333 4.437333-11.264 6.485333 3.754667-2.048 7.509333-4.437333 11.264-6.485333 34.816-20.138667 70.314667-36.864 105.130666-50.176z m147.797334-32.085333c41.301333 0 69.290667 11.264 81.578666 32.085333 0.341333 0.682667 0.682667 1.024 1.024 1.706667-0.341333-0.682667-0.682667-1.024-1.024-1.706667-11.946667-20.821333-40.277333-32.085333-81.578666-32.085333z" p-id="10272" data-spm-anchor-id="a313x.7781069.0.i21" class="" fill="#f4ea2a"></path></svg>
