<svg t="1678870630986" class="icon" viewBox="0 0 1024 1024" version="1.1" xmlns="http://www.w3.org/2000/svg" p-id="25604" width="200" height="200"><path d="M960.289979 540.182876c0-111.305015-88.047312-213.254965-190.95917-213.254965-46.166459 0-90.408079 30.16502-122.933867 60.243059-22.12081 20.37198-163.241898 112.616894-225.233787 115.152647-134.038786 5.420453-255.573793-59.544141-293.346071-191.396121 0 0-17.137309-33.225729-19.498076-87.872327-0.436952-22.12081-15.913435-20.98494-23.432689-1.223874-2.710738 7.082302-16.350386 26.492374-18.97312 69.861114-1.048889 17.749246-1.39886 38.034245-0.436952 60.418045C76.842109 639.160121 302.862819 871.388207 568.229652 859.060437c134.388756-6.208399 251.727185-80.96501 335.139943-181.166129 1.573845-1.74883 3.060709-3.584642 4.546549-5.508457C936.50732 636.974339 960.289979 590.545914 960.289979 540.182876M371.937011 165.347862C460.334293 155.991774 538.676569 222.705198 546.80776 307.342854c2.097778 22.3838-0.261966 42.405809-7.432273 62.515822-66.188468 73.707722-174.521802 69.424162-174.521802 66.975391-84.025719-8.918114-116.901477-48.964178-136.748501-84.287685-0.611937-3.672646-1.136893-7.344269-1.573845-11.104919C218.488153 256.80483 283.451724 174.789908 371.937011 165.347862" fill="#f4ea2a" p-id="25605"></path></svg>
