<svg t="1679039800601" class="icon" viewBox="0 0 1024 1024" version="1.1" xmlns="http://www.w3.org/2000/svg" p-id="2468"
     width="200" height="200">
    <path d="M1023.082985 510.634667c0 281.370746-228.08199 509.452736-509.452736 509.452736-281.360557 0-509.452736-228.08199-509.452737-509.452736 0-281.365652 228.092179-509.452736 509.452737-509.452737 281.370746 0 509.452736 228.087085 509.452736 509.452737"
          fill="#FFFFFF" p-id="2469"></path>
    <path d="M947.14396 778.316418a510.843542 510.843542 0 0 1-101.763184 118.947025c-2.287443 1.981771-4.574886 3.922786-6.908179 5.828139a506.23809 506.23809 0 0 1-90.92203 60.181652 315.555025 315.555025 0 0 1-15.84398 7.855761c-66.101493 31.433234-140.058746 48.958408-218.076338 48.958408-79.693692 0-155.123264-18.304637-222.299702-50.98603a253.31009 253.31009 0 0 1-10.403025-5.181134 505.687881 505.687881 0 0 1-91.100338-60.013533 404.138667 404.138667 0 0 1-9.322985-7.80991 510.614289 510.614289 0 0 1-100.382567-117.785473h211.208915V507.058308l147.700538 147.700538 21.926845 21.93194 53.624995 53.619901 53.579145-53.619901 21.972696-21.93194 141.576916-141.612577v265.170149h215.432278z"
          fill="#eeb173" p-id="2470" data-spm-anchor-id="a313x.7781069.0.i17" class="selected"></path>
    <path d="M1023.082985 510.634667c0 58.159124-9.750925 114.020617-27.714229 166.04593h-149.982885V248.358209l-113.674189 113.679284-217.128757 217.164417-334.078726-334.08382v431.567602H31.891741c-17.958209-52.025313-27.714229-107.886806-27.714229-166.045931 0-84.314428 20.505473-163.84 56.81417-233.915224A506.232995 506.232995 0 0 1 121.188617 185.797413 511.210348 511.210348 0 0 1 180.499104 125.177632a508.841393 508.841393 0 0 1 110.826349-73.004577C358.51208 19.486567 433.936557 1.18193 513.630249 1.18193c78.012498 0 151.969751 17.530269 218.076338 48.958408a508.851582 508.851582 0 0 1 113.674189 73.870647 506.818866 506.818866 0 0 1 61.521513 62.820617 505.922229 505.922229 0 0 1 60.013532 91.095244c35.916418 69.769552 56.167164 148.86209 56.167164 232.707821"
          fill="#ea986c" p-id="2471" data-spm-anchor-id="a313x.7781069.0.i14" class=""></path>
</svg>
