<?xml version="1.0" standalone="no"?><!DOCTYPE svg PUBLIC "-//W3C//DTD SVG 1.1//EN" "http://www.w3.org/Graphics/SVG/1.1/DTD/svg11.dtd"><svg t="1681095970997" class="icon" viewBox="0 0 1024 1024" version="1.1" xmlns="http://www.w3.org/2000/svg" p-id="1171" xmlns:xlink="http://www.w3.org/1999/xlink" width="200" height="200"><path d="M708.266667 301.511111H654.222222c-1.422222 0-2.844444-1.422222-1.422222-2.844444l27.022222-62.577778a2.844444 2.844444 0 0 1 4.266667 0l25.6 64zM558.933333 358.4l38.4-36.977778a1.422222 1.422222 0 0 0 0-2.844444l-64-27.022222a2.844444 2.844444 0 0 0-2.844444 2.844444l25.6 64c0 1.422222 1.422222 1.422222 2.844444 0z" fill="#F7DF4A" p-id="1172"></path><path d="M894.577778 443.733333l-73.955556-32.711111c-1.422222-1.422222-2.844444 0-2.844444 1.422222v64a2.844444 2.844444 0 0 0 2.844444 2.844445l75.377778-31.288889s0-2.844444-1.422222-4.266667zM797.866667 369.777778c1.422222 1.422222 4.266667 1.422222 4.266666 0l31.288889-75.377778c1.422222-1.422222-1.422222-2.844444-2.844444-2.844444l-75.377778 28.444444c-1.422222 1.422222-2.844444 2.844444-1.422222 4.266667zM787.911111 547.555556a88.177778 88.177778 0 0 1 27.022222 9.955555l-12.8-34.133333c-1.422222-2.844444-2.844444-2.844444-4.266666-1.422222l-11.377778 11.377777a44.088889 44.088889 0 0 1 1.422222 14.222223z" fill="#F7B531" p-id="1173"></path><path d="M634.311111 398.222222a118.044444 118.044444 0 0 1 31.288889 4.266667l52.622222-49.777778c1.422222-2.844444 1.422222-5.688889-1.422222-7.111111a92.444444 92.444444 0 0 0-44.088889-7.111111 109.511111 109.511111 0 0 0-92.444444 69.688889 173.511111 173.511111 0 0 1 54.044444-9.955556z" fill="#F7DF4A" p-id="1174"></path><path d="M768 477.866667l11.377778 24.177777a102.4 102.4 0 0 0 15.644444-45.511111 119.466667 119.466667 0 0 0-32.711111-98.133333c-2.844444-2.844444-5.688889-2.844444-7.111111 0l-56.888889 55.466667a159.288889 159.288889 0 0 1 69.688889 64z" fill="#F7B531" p-id="1175"></path><path d="M253.155556 750.933333h509.155555a83.911111 83.911111 0 0 0 83.911111-93.866666 85.333333 85.333333 0 0 0-88.177778-76.8h-9.955555a113.777778 113.777778 0 0 0-12.8-83.911111 119.466667 119.466667 0 0 0-69.688889-56.888889l-31.288889-4.266667a125.155556 125.155556 0 0 0-46.933333 9.955556l-337.066667 298.666666c-2.844444 1.422222-1.422222 7.111111 2.844445 7.111111z" fill="#A1C6E6" p-id="1176"></path><path d="M402.488889 355.555556a143.644444 143.644444 0 0 0-142.222222 132.266666v25.6h-25.6a78.222222 78.222222 0 0 0-25.6 2.844445h-1.422223c-41.244444 8.533333-81.066667 51.2-82.488888 93.866666a99.555556 99.555556 0 0 0 69.688888 98.133334h2.844445a9.955556 9.955556 0 0 0 8.533333-2.844445l311.466667-275.911111a8.533333 8.533333 0 0 0 1.422222-12.8 140.8 140.8 0 0 0-116.622222-61.155555z" fill="#C3D6E6" p-id="1177"></path></svg>