<?xml version="1.0" standalone="no"?><!DOCTYPE svg PUBLIC "-//W3C//DTD SVG 1.1//EN" "http://www.w3.org/Graphics/SVG/1.1/DTD/svg11.dtd"><svg t="1683279696713" class="icon" viewBox="0 0 1024 1024" version="1.1" xmlns="http://www.w3.org/2000/svg" p-id="1879" xmlns:xlink="http://www.w3.org/1999/xlink" width="200" height="200"><path d="M1018.114163 1024l-291.298073-83.226407-436.229739 72.708722L5.885837 891.461353V378.986871l235.636813 100.985592-28.480219 66.461376L78.18786 488.637409V843.787207l221.413649 94.885108 431.394541-71.895324L945.81214 928.15463V569.536595l-123.387922-35.258534 19.860462-69.522914L1018.114163 514.993756v509.006244z" fill="#1262B3" p-id="1880"></path><path d="M530.075506 848.339975l-26.446725-28.367247a2291.070365 2291.070365 0 0 1-147.2024-178.201893c-43.07619-58.112751-77.521326-111.525871-102.363849-158.770725C220.860087 419.882703 204.716401 368.288431 204.716401 325.359105a325.359105 325.359105 0 1 1 650.71821 0c0 42.929326-16.143686 94.523598-49.346131 157.641005-24.853821 47.244853-59.287659 100.657973-102.363849 158.770725a2291.070365 2291.070365 0 0 1-147.202401 178.201893zM530.075506 72.302023c-139.531608 0-253.057082 113.525474-253.057082 253.057082 0 56.678008 48.82646 153.754772 137.498114 273.392026 44.059045 59.44582 88.423115 111.65014 115.558968 142.514066 27.237528-30.976898 71.816244-83.463648 115.95437-143.033737C734.441694 478.831447 783.132588 381.946736 783.132588 325.359105c0-139.531608-113.525474-253.057082-253.057082-253.057082z" fill="#1262B3" p-id="1881"></path><path d="M530.075506 506.114163c-99.66382 0-180.755058-81.091238-180.755059-180.755058s81.091238-180.755058 180.755059-180.755058 180.755058 81.091238 180.755058 180.755058-81.091238 180.755058-180.755058 180.755058z m0-289.208093a108.453035 108.453035 0 1 0 108.453035 108.453035 108.577304 108.577304 0 0 0-108.453035-108.453035z" fill="#FF584D" p-id="1882"></path></svg>