<?xml version="1.0" standalone="no"?><!DOCTYPE svg PUBLIC "-//W3C//DTD SVG 1.1//EN" "http://www.w3.org/Graphics/SVG/1.1/DTD/svg11.dtd"><svg t="1681096023207" class="icon" viewBox="0 0 1024 1024" version="1.1" xmlns="http://www.w3.org/2000/svg" p-id="1465" xmlns:xlink="http://www.w3.org/1999/xlink" width="200" height="200"><path d="M795.022222 418.133333h-9.955555a118.044444 118.044444 0 0 0-14.222223-88.177777 123.733333 123.733333 0 0 0-72.533333-58.311112 125.155556 125.155556 0 0 0-79.644444 5.688889L268.8 585.955556a4.266667 4.266667 0 0 0 2.844444 7.111111h527.644445a89.6 89.6 0 0 0 88.177778-96.711111 89.6 89.6 0 0 0-92.444445-78.222223z" fill="#A1C6E6" p-id="1466"></path><path d="M428.088889 184.888889a149.333333 149.333333 0 0 0-147.911111 136.533333l-2.844445 25.6h-14.222222a160.711111 160.711111 0 0 0-36.977778 1.422222h-1.422222c-42.666667 8.533333-83.911111 52.622222-85.333333 96.711112a102.4 102.4 0 0 0 72.533333 100.977777 11.377778 11.377778 0 0 0 11.377778-1.422222l322.844444-284.444444a8.533333 8.533333 0 0 0 1.422223-12.8 145.066667 145.066667 0 0 0-119.466667-62.577778z" fill="#C3D6E6" p-id="1467"></path><path d="M497.777778 682.666667h25.6v104.106666H497.777778zM671.288889 671.288889H696.888889v93.297778h-25.6zM556.088889 634.311111h25.6v76.657778h-25.6zM722.488889 617.244444h25.6v76.657778h-25.6z" fill="#A1C6E6" p-id="1468"></path><path d="M376.888889 627.2h25.6v123.875556h-25.6zM267.377778 627.2h25.6v73.671111h-25.6zM318.577778 668.444444h25.6v122.88h-25.6z" fill="#C3D6E6" p-id="1469"></path><path d="M598.755556 659.911111h25.6v174.222222h-25.6z" fill="#A1C6E6" p-id="1470"></path></svg>