<?xml version="1.0" standalone="no"?><!DOCTYPE svg PUBLIC "-//W3C//DTD SVG 1.1//EN" "http://www.w3.org/Graphics/SVG/1.1/DTD/svg11.dtd"><svg t="1681096046500" class="icon" viewBox="0 0 1024 1024" version="1.1" xmlns="http://www.w3.org/2000/svg" p-id="1613" xmlns:xlink="http://www.w3.org/1999/xlink" width="200" height="200"><path d="M790.755556 412.444444h-9.955556a122.311111 122.311111 0 0 0-12.8-86.755555 130.844444 130.844444 0 0 0-72.533333-56.888889 120.888889 120.888889 0 0 0-78.222223 5.688889L271.644444 578.844444a4.266667 4.266667 0 0 0 2.844445 8.533334h520.533333a88.177778 88.177778 0 0 0 86.755556-96.711111 91.022222 91.022222 0 0 0-91.022222-78.222223z" fill="#A1C6E6" p-id="1614"></path><path d="M428.088889 183.466667a146.488889 146.488889 0 0 0-146.488889 133.688889v27.022222h-14.222222a105.244444 105.244444 0 0 0-36.977778 2.844444H227.555556c-42.666667 8.533333-83.911111 52.622222-83.911112 95.288889a102.4 102.4 0 0 0 71.111112 100.977778 11.377778 11.377778 0 0 0 11.377777-2.844445l318.577778-283.022222a8.533333 8.533333 0 0 0 1.422222-12.8 140.8 140.8 0 0 0-118.044444-61.155555z" fill="#CFDBE6" p-id="1615"></path><path d="M604.444444 779.377778l-15.644444-9.955556 15.644444-8.533333a14.222222 14.222222 0 0 0 4.266667-18.488889 14.222222 14.222222 0 0 0-18.488889-5.688889l-15.644444 9.955556v-18.488889a14.222222 14.222222 0 0 0-14.222222-14.222222 14.222222 14.222222 0 0 0-12.8 14.222222v18.488889l-15.644445-9.955556a14.222222 14.222222 0 0 0-18.488889 5.688889 14.222222 14.222222 0 0 0 4.266667 18.488889l15.644444 8.533333-15.644444 9.955556a12.8 12.8 0 0 0-4.266667 18.488889 12.8 12.8 0 0 0 18.488889 4.266666l15.644445-8.533333v18.488889a12.8 12.8 0 0 0 12.8 12.8 12.8 12.8 0 0 0 14.222222-12.8v-18.488889l15.644444 8.533333a12.8 12.8 0 0 0 18.488889-4.266666 12.8 12.8 0 0 0-4.266667-18.488889zM745.244444 752.355556l-8.533333-4.266667 8.533333-5.688889a7.111111 7.111111 0 0 0-7.111111-12.8l-9.955555 4.266667v-9.955556a7.111111 7.111111 0 1 0-14.222222 0v9.955556l-9.955556-4.266667c-2.844444-2.844444-7.111111-1.422222-9.955556 2.844444s-1.422222 8.533333 2.844445 9.955556l8.533333 5.688889-8.533333 4.266667a8.533333 8.533333 0 0 0-2.844445 11.377777 9.955556 9.955556 0 0 0 9.955556 2.844445l9.955556-5.688889v9.955555a7.111111 7.111111 0 1 0 14.222222 0v-9.955555l9.955555 5.688889a8.533333 8.533333 0 0 0 9.955556-2.844445 7.111111 7.111111 0 0 0-2.844445-11.377777zM540.444444 644.266667l-5.688888-2.844445 5.688888-4.266666a7.111111 7.111111 0 0 0 2.844445-8.533334c-1.422222-2.844444-5.688889-2.844444-8.533333-1.422222l-5.688889 4.266667v-8.533334a5.688889 5.688889 0 0 0-5.688889-5.688889 5.688889 5.688889 0 0 0-5.688889 5.688889v8.533334l-7.111111-4.266667a7.111111 7.111111 0 0 0-8.533334 1.422222 7.111111 7.111111 0 0 0 2.844445 8.533334l7.111111 4.266666-7.111111 2.844445a7.111111 7.111111 0 0 0-2.844445 8.533333 7.111111 7.111111 0 0 0 8.533334 1.422222l7.111111-2.844444v7.111111a5.688889 5.688889 0 0 0 5.688889 5.688889 5.688889 5.688889 0 0 0 5.688889-5.688889v-7.111111l5.688889 2.844444c2.844444 1.422222 7.111111 1.422222 8.533333-1.422222a7.111111 7.111111 0 0 0-2.844445-8.533333zM694.044444 657.066667l-11.377777-5.688889 11.377777-5.688889a9.955556 9.955556 0 0 0-9.955555-15.644445l-9.955556 5.688889v-12.8a8.533333 8.533333 0 0 0-8.533333-8.533333 9.955556 9.955556 0 0 0-9.955556 8.533333v12.8l-9.955555-5.688889a9.955556 9.955556 0 1 0-9.955556 15.644445l11.377778 5.688889-11.377778 5.688889a9.955556 9.955556 0 0 0-2.844444 12.8 8.533333 8.533333 0 0 0 12.8 2.844444l9.955555-5.688889v12.8a8.533333 8.533333 0 0 0 8.533334 8.533334 9.955556 9.955556 0 0 0 9.955555-8.533334v-12.8l9.955556 5.688889a9.955556 9.955556 0 0 0 9.955555-15.644444z" fill="#A1C6E6" p-id="1616"></path><path d="M405.333333 662.755556l-12.8-8.533334 12.8-7.111111a11.377778 11.377778 0 0 0-11.377777-19.911111l-12.8 7.111111v-15.644444a12.8 12.8 0 0 0-11.377778-11.377778 11.377778 11.377778 0 0 0-11.377778 11.377778v15.644444l-14.222222-7.111111a9.955556 9.955556 0 0 0-14.222222 4.266667 11.377778 11.377778 0 0 0 2.844444 15.644444l14.222222 7.111111-14.222222 8.533334a9.955556 9.955556 0 0 0-2.844444 14.222222c2.844444 5.688889 9.955556 8.533333 14.222222 4.266666l14.222222-7.111111v15.644445a11.377778 11.377778 0 0 0 11.377778 11.377778 12.8 12.8 0 0 0 11.377778-11.377778v-15.644445l12.8 7.111111a9.955556 9.955556 0 0 0 15.644444-4.266666 9.955556 9.955556 0 0 0-4.266667-14.222222zM294.4 726.755556l-9.955556-7.111112 9.955556-5.688888a11.377778 11.377778 0 0 0 4.266667-12.8 9.955556 9.955556 0 0 0-12.8-2.844445l-11.377778 5.688889v-11.377778c0-5.688889-2.844444-9.955556-8.533333-9.955555a9.955556 9.955556 0 0 0-8.533334 9.955555v11.377778l-11.377778-5.688889a7.111111 7.111111 0 0 0-11.377777 2.844445 9.955556 9.955556 0 0 0 2.844444 12.8l9.955556 5.688888-9.955556 7.111112a7.111111 7.111111 0 0 0-2.844444 11.377777 8.533333 8.533333 0 0 0 11.377777 4.266667l11.377778-7.111111v12.8a8.533333 8.533333 0 0 0 8.533334 8.533333 8.533333 8.533333 0 0 0 8.533333-8.533333v-12.8l11.377778 7.111111a11.377778 11.377778 0 0 0 12.8-4.266667 8.533333 8.533333 0 0 0-4.266667-11.377777zM473.6 753.777778l-7.111111-4.266667 7.111111-4.266667a5.688889 5.688889 0 0 0 2.844444-7.111111 7.111111 7.111111 0 0 0-8.533333-2.844444l-7.111111 4.266667v-8.533334a5.688889 5.688889 0 0 0-11.377778 0v8.533334l-7.111111-4.266667c-2.844444-1.422222-5.688889 0-8.533333 2.844444a5.688889 5.688889 0 0 0 2.844444 7.111111l7.111111 4.266667-7.111111 4.266667a7.111111 7.111111 0 0 0-2.844444 8.533333 7.111111 7.111111 0 0 0 8.533333 1.422222l7.111111-4.266666v8.533333a5.688889 5.688889 0 0 0 11.377778 0v-8.533333l7.111111 4.266666c2.844444 1.422222 7.111111 1.422222 8.533333-1.422222a7.111111 7.111111 0 0 0-2.844444-8.533333z" fill="#CFDBE6" p-id="1617"></path></svg>